<!DOCTYPE svg PUBLIC "-//W3C//DTD SVG 20010904//EN" "http://www.w3.org/TR/2001/REC-SVG-20010904/DTD/svg10.dtd">
<svg version="1.0" xmlns="http://www.w3.org/2000/svg" width="1041px" height="183px" viewBox="0 0 10410 1830" preserveAspectRatio="xMidYMid meet">
<!-- <g id="layer101" fill="#f8f9fa" stroke="none">
<path d="M0 915 l0 -915 5205 0 5205 0 0 915 0 915 -5205 0 -5205 0 0 -915z"/>
</g>
<g id="layer102" fill="#f8f9fa" stroke="none">
<path d="M0 915 l0 -915 5205 0 5205 0 0 915 0 915 -5205 0 -5205 0 0 -915z m840 811 c0 -2 -8 -10 -17 -17 -16 -13 -17 -12 -4 4 13 16 21 21 21 13z m-55 -36 c-3 -5 -12 -10 -18 -10 -7 0 -6 4 3 10 19 12 23 12 15 0z m232 3 c-4 -3 -10 -3 -14 0 -3 4 0 7 7 7 7 0 10 -3 7 -7z m70 -30 c-4 -3 -10 -3 -14 0 -3 4 0 7 7 7 7 0 10 -3 7 -7z m-347 -7 c0 -2 -7 -7 -16 -10 -8 -3 -12 -2 -9 4 6 10 25 14 25 6z m437 -33 c-4 -3 -10 -3 -14 0 -3 4 0 7 7 7 7 0 10 -3 7 -7z m-557 -37 c0 -3 -5 -8 -12 -12 -7 -4 -8 -3 -4 4 7 12 16 16 16 8z m715 -26 c3 -5 4 -10 1 -10 -3 0 -8 5 -11 10 -3 6 -4 10 -1 10 3 0 8 -4 11 -10z m-775 -14 c0 -2 -8 -10 -17 -17 -16 -13 -17 -12 -4 4 13 16 21 21 21 13z m807 -3 c-4 -3 -10 -3 -14 0 -3 4 0 7 7 7 7 0 10 -3 7 -7z m-407 -17 c0 -2 -9 -6 -20 -9 -11 -3 -18 -1 -14 4 5 9 34 13 34 5z m27 -13 c-4 -3 -10 -3 -14 0 -3 4 0 7 7 7 7 0 10 -3 7 -7z m-480 -10 c-4 -3 -10 -3 -14 0 -3 4 0 7 7 7 7 0 10 -3 7 -7z m398 -3 c-3 -5 -12 -10 -18 -10 -7 0 -6 4 3 10 19 12 23 12 15 0z m112 3 c-4 -3 -10 -3 -14 0 -3 4 0 7 7 7 7 0 10 -3 7 -7z m458 -3 c3 -6 -1 -7 -9 -4 -18 7 -21 14 -7 14 6 0 13 -4 16 -10z m-415 -10 c8 -5 11 -10 5 -10 -5 0 -17 5 -25 10 -8 5 -10 10 -5 10 6 0 17 -5 25 -10z m-590 -10 c-35 -24 -54 -31 -30 -11 14 11 30 21 35 21 6 0 3 -5 -5 -10z m6048 -7 c-21 -2 -55 -2 -75 0 -21 2 -4 4 37 4 41 0 58 -2 38 -4z m2770 0 c-76 -2 -200 -2 -275 0 -76 1 -14 3 137 3 151 0 213 -2 138 -3z m-8171 -10 c-4 -3 -10 -3 -14 0 -3 4 0 7 7 7 7 0 10 -3 7 -7z m4666 0 c-13 -2 -33 -2 -45 0 -13 2 -3 4 22 4 25 0 35 -2 23 -4z m590 0 c-7 -2 -19 -2 -25 0 -7 3 -2 5 12 5 14 0 19 -2 13 -5z m244 1 c-3 -3 -12 -4 -19 -1 -8 3 -5 6 6 6 11 1 17 -2 13 -5z m2923 -376 l-5 -383 -3 370 c-2 329 0 395 10 395 2 0 1 -172 -2 -382z m450 312 c-34 -38 -64 -70 -67 -70 -6 0 97 121 112 132 23 17 14 4 -45 -62z m-9150 50 c-8 -5 -19 -10 -25 -10 -5 0 -3 5 5 10 8 5 20 10 25 10 6 0 3 -5 -5 -10z m4857 3 c-4 -3 -10 -3 -14 0 -3 4 0 7 7 7 7 0 10 -3 7 -7z m140 0 c-4 -3 -10 -3 -14 0 -3 4 0 7 7 7 7 0 10 -3 7 -7z m2390 -505 c-1 -95 -3 -18 -3 172 0 190 2 267 3 173 2 -95 2 -251 0 -345z m640 -46 c-1 -103 -2 -18 -2 188 0 206 1 291 2 187 2 -103 2 -271 0 -375z m576 417 c-4 -4 -6 27 -3 69 l5 77 3 -69 c2 -38 -1 -73 -5 -77z m-7836 124 c-4 -3 -10 -3 -14 0 -3 4 0 7 7 7 7 0 10 -3 7 -7z m721 0 c-10 -2 -28 -2 -40 0 -13 2 -5 4 17 4 22 1 32 -1 23 -4z m855 0 c-13 -2 -35 -2 -50 0 -16 2 -5 4 22 4 28 0 40 -2 28 -4z m1905 0 c-21 -2 -55 -2 -75 0 -21 2 -4 4 37 4 41 0 58 -2 38 -4z m572 3 c0 -2 -9 -6 -20 -9 -11 -3 -18 -1 -14 4 5 9 34 13 34 5z m227 -3 c-4 -3 -10 -3 -14 0 -3 4 0 7 7 7 7 0 10 -3 7 -7z m2900 -10 c-4 -3 -7 0 -7 7 0 7 3 10 7 7 3 -4 3 -10 0 -14z m920 -135 c-2 -29 -3 -6 -3 52 0 58 1 81 3 53 2 -29 2 -77 0 -105z m-8907 138 c0 -3 -5 -8 -12 -12 -7 -4 -8 -3 -4 4 7 12 16 16 16 8z m1417 -3 c-4 -3 -10 -3 -14 0 -3 4 0 7 7 7 7 0 10 -3 7 -7z m150 0 c-4 -3 -10 -3 -14 0 -3 4 0 7 7 7 7 0 10 -3 7 -7z m720 0 c-4 -3 -10 -3 -14 0 -3 4 0 7 7 7 7 0 10 -3 7 -7z m660 0 c-4 -3 -10 -3 -14 0 -3 4 0 7 7 7 7 0 10 -3 7 -7z m100 1 c-3 -3 -12 -4 -19 -1 -8 3 -5 6 6 6 11 1 17 -2 13 -5z m40 -1 c-4 -3 -10 -3 -14 0 -3 4 0 7 7 7 7 0 10 -3 7 -7z m411 0 c-27 -2 -69 -2 -95 0 -27 2 -5 3 47 3 52 0 74 -1 48 -3z m99 1 c-3 -3 -12 -4 -19 -1 -8 3 -5 6 6 6 11 1 17 -2 13 -5z m30 -1 c-4 -3 -10 -3 -14 0 -3 4 0 7 7 7 7 0 10 -3 7 -7z m3060 -10 c-4 -3 -7 0 -7 7 0 7 3 10 7 7 3 -4 3 -10 0 -14z m-7107 3 c0 -3 -5 -8 -12 -12 -7 -4 -8 -3 -4 4 7 12 16 16 16 8z m1284 -5 c4 -5 -3 -7 -14 -4 -23 6 -26 13 -6 13 8 0 17 -4 20 -9z m496 5 c0 -2 -8 -10 -17 -17 -16 -13 -17 -12 -4 4 13 16 21 21 21 13z m27 -3 c-4 -3 -10 -3 -14 0 -3 4 0 7 7 7 7 0 10 -3 7 -7z m257 -2 c4 -5 -3 -7 -14 -4 -23 6 -26 13 -6 13 8 0 17 -4 20 -9z m3151 -3 c-11 -6 -27 -16 -35 -22 -9 -6 -5 -1 8 12 13 12 28 22 35 22 7 0 3 -6 -8 -12z m350 2 c3 -6 -1 -7 -9 -4 -18 7 -21 14 -7 14 6 0 13 -4 16 -10z m805 -27 c0 -7 -39 17 -46 28 -3 6 5 3 20 -6 14 -10 26 -19 26 -22z m3470 34 c0 -2 -10 -12 -22 -23 l-23 -19 19 23 c18 21 26 27 26 19z m-8993 -14 c-4 -3 -10 -3 -14 0 -3 4 0 7 7 7 7 0 10 -3 7 -7z m2450 -10 c-4 -3 -7 0 -7 7 0 7 3 10 7 7 3 -4 3 -10 0 -14z m460 0 c-4 -3 -7 0 -7 7 0 7 3 10 7 7 3 -4 3 -10 0 -14z m830 -95 c-2 -24 -4 -7 -4 37 0 44 2 63 4 43 2 -21 2 -57 0 -80z m1283 108 c0 -2 -8 -10 -17 -17 -16 -13 -17 -12 -4 4 13 16 21 21 21 13z m2537 -63 c-2 -16 -4 -5 -4 22 0 28 2 40 4 28 2 -13 2 -35 0 -50z m-7517 47 c8 -5 11 -10 5 -10 -5 0 -17 5 -25 10 -8 5 -10 10 -5 10 6 0 17 -5 25 -10z m439 -24 c-3 -3 -11 5 -18 17 -13 21 -12 21 5 5 10 -10 16 -20 13 -22z m776 24 c3 -6 -1 -7 -9 -4 -18 7 -21 14 -7 14 6 0 13 -4 16 -10z m495 6 c0 -3 -5 -8 -12 -12 -7 -4 -8 -3 -4 4 7 12 16 16 16 8z m355 -6 c3 -5 4 -10 1 -10 -3 0 -8 5 -11 10 -3 6 -4 10 -1 10 3 0 8 -4 11 -10z m-2588 -7 c-4 -3 -10 -3 -14 0 -3 4 0 7 7 7 7 0 10 -3 7 -7z m1363 3 c0 -3 -5 -8 -12 -12 -7 -4 -8 -3 -4 4 7 12 16 16 16 8z m4767 -13 c-4 -3 -7 0 -7 7 0 7 3 10 7 7 3 -4 3 -10 0 -14z m610 -5 c-3 -8 -6 -5 -6 6 -1 11 2 17 5 13 3 -3 4 -12 1 -19z m-4106 -5 c13 -16 12 -17 -3 -4 -17 13 -22 21 -14 21 2 0 10 -8 17 -17z m2624 7 c3 -5 4 -10 1 -10 -3 0 -8 5 -11 10 -3 6 -4 10 -1 10 3 0 8 -4 11 -10z m-5295 -4 c0 -3 -5 -8 -12 -12 -7 -4 -8 -3 -4 4 7 12 16 16 16 8z m625 -6 c3 -6 -1 -7 -9 -4 -18 7 -21 14 -7 14 6 0 13 -4 16 -10z m2775 6 c0 -3 -5 -8 -12 -12 -7 -4 -8 -3 -4 4 7 12 16 16 16 8z m-3820 -10 c0 -3 -5 -8 -12 -12 -7 -4 -8 -3 -4 4 7 12 16 16 16 8z m1767 -13 c-4 -3 -7 0 -7 7 0 7 3 10 7 7 3 -4 3 -10 0 -14z m863 13 c0 -3 -5 -8 -12 -12 -7 -4 -8 -3 -4 4 7 12 16 16 16 8z m1007 -18 c-3 -8 -6 -5 -6 6 -1 11 2 17 5 13 3 -3 4 -12 1 -19z m1581 2 c-7 -10 -14 -17 -17 -15 -4 4 18 35 25 35 2 0 -1 -9 -8 -20z m4662 17 c0 -2 -12 -14 -27 -28 l-28 -24 24 28 c23 25 31 32 31 24z m-9515 -32 c-16 -14 -34 -25 -39 -25 -12 0 -3 9 31 31 40 25 43 22 8 -6z m1072 18 c-4 -3 -10 -3 -14 0 -3 4 0 7 7 7 7 0 10 -3 7 -7z m2683 3 c0 -3 -5 -8 -12 -12 -7 -4 -8 -3 -4 4 7 12 16 16 16 8z m-3490 -21 c33 -19 21 -19 -21 0 -19 8 -27 14 -19 14 8 0 26 -6 40 -14z m475 5 c3 -5 4 -10 1 -10 -3 0 -8 5 -11 10 -3 6 -4 10 -1 10 3 0 8 -4 11 -10z m2695 6 c0 -3 -5 -8 -12 -12 -7 -4 -8 -3 -4 4 7 12 16 16 16 8z m1930 1 c0 -2 -19 -21 -42 -42 l-43 -40 40 43 c36 39 45 47 45 39z m-3435 -17 c3 -5 4 -10 1 -10 -3 0 -8 5 -11 10 -3 6 -4 10 -1 10 3 0 8 -4 11 -10z m-1735 -4 c0 -3 -5 -8 -12 -12 -7 -4 -8 -3 -4 4 7 12 16 16 16 8z m611 -14 c-7 -2 -18 1 -23 6 -8 8 -4 9 13 5 13 -4 18 -8 10 -11z m559 14 c0 -2 -8 -10 -17 -17 -16 -13 -17 -12 -4 4 13 16 21 21 21 13z m2370 1 c0 -2 -10 -12 -22 -23 l-23 -19 19 23 c18 21 26 27 26 19z m1773 -12 c-3 -9 -8 -14 -10 -11 -3 3 -2 9 2 15 9 16 15 13 8 -4z m645 -21 c-3 -14 -5 -12 -10 9 -3 19 -2 25 4 19 6 -6 8 -18 6 -28z m-3948 19 c0 -5 -10 -19 -21 -33 l-21 -25 18 33 c18 32 24 38 24 25z m595 -3 c3 -5 4 -10 1 -10 -3 0 -8 5 -11 10 -3 6 -4 10 -1 10 3 0 8 -4 11 -10z m2017 -30 c-9 -21 -18 -35 -20 -30 -3 9 25 70 33 70 2 0 -4 -18 -13 -40z m1085 33 c-4 -3 -10 -3 -14 0 -3 4 0 7 7 7 7 0 10 -3 7 -7z m1183 -215 l-5 -223 -3 210 c-2 185 0 235 10 235 2 0 1 -100 -2 -222z m203 215 c-35 -2 -91 -2 -125 0 -35 2 -7 3 62 3 69 0 97 -1 63 -3z m135 0 c-10 -2 -28 -2 -40 0 -13 2 -5 4 17 4 22 1 32 -1 23 -4z m449 0 c-20 -2 -52 -2 -70 0 -17 2 0 4 38 4 39 0 53 -2 32 -4z m116 0 c-13 -2 -35 -2 -50 0 -16 2 -5 4 22 4 28 0 40 -2 28 -4z m70 0 c-7 -2 -21 -2 -30 0 -10 3 -4 5 12 5 17 0 24 -2 18 -5z m-7896 -10 c-4 -3 -10 -3 -14 0 -3 4 0 7 7 7 7 0 10 -3 7 -7z m170 0 c-4 -3 -10 -3 -14 0 -3 4 0 7 7 7 7 0 10 -3 7 -7z m518 -11 c-3 -3 -11 0 -18 7 -9 10 -8 11 6 5 10 -3 15 -9 12 -12z m240 8 c3 -5 1 -10 -4 -10 -6 0 -11 5 -11 10 0 6 2 10 4 10 3 0 8 -4 11 -10z m860 0 c3 -5 4 -10 1 -10 -3 0 -8 5 -11 10 -3 6 -4 10 -1 10 3 0 8 -4 11 -10z m1452 3 c-4 -3 -10 -3 -14 0 -3 4 0 7 7 7 7 0 10 -3 7 -7z m1670 0 c-4 -3 -10 -3 -14 0 -3 4 0 7 7 7 7 0 10 -3 7 -7z m1621 0 c-53 -2 -143 -2 -200 0 -57 1 -13 3 97 3 110 0 156 -2 103 -3z m1703 -136 c15 -4 15 -4 -3 -3 -22 1 -23 6 -24 71 l0 70 3 -67 c3 -57 7 -67 24 -71z m859 140 c0 -2 -14 -16 -32 -33 l-32 -29 25 32 c20 27 39 41 39 30z m-9693 -69 c-2 -13 -4 -3 -4 22 0 25 2 35 4 23 2 -13 2 -33 0 -45z m5640 55 c-4 -3 -10 -3 -14 0 -3 4 0 7 7 7 7 0 10 -3 7 -7z m503 3 c0 -2 -17 -16 -37 -31 l-38 -26 35 30 c34 31 40 35 40 27z m271 -13 c13 -16 12 -17 -3 -4 -17 13 -22 21 -14 21 2 0 10 -8 17 -17z m246 0 c-4 -3 -7 0 -7 7 0 7 3 10 7 7 3 -4 3 -10 0 -14z m-5840 0 c-4 -3 -10 -3 -14 0 -3 4 0 7 7 7 7 0 10 -3 7 -7z m508 -3 c3 -5 4 -10 1 -10 -3 0 -8 5 -11 10 -3 6 -4 10 -1 10 3 0 8 -4 11 -10z m2382 -7 c-4 -3 -7 0 -7 7 0 7 3 10 7 7 3 -4 3 -10 0 -14z m1968 -1 c-3 -3 -11 0 -18 7 -9 10 -8 11 6 5 10 -3 15 -9 12 -12z m-5341 -6 c-10 -8 -21 -12 -24 -10 -5 6 21 24 34 24 6 0 1 -6 -10 -14z m2076 -6 c6 -11 8 -20 6 -20 -3 0 -10 9 -16 20 -6 11 -8 20 -6 20 3 0 10 -9 16 -20z m3030 17 c0 -2 -10 -12 -22 -23 l-23 -19 19 23 c18 21 26 27 26 19z m4430 0 c0 -2 -17 -19 -37 -38 l-38 -34 34 38 c33 34 41 42 41 34z m-9013 -14 c-4 -3 -10 -3 -14 0 -3 4 0 7 7 7 7 0 10 -3 7 -7z m670 -10 c-4 -3 -7 0 -7 7 0 7 3 10 7 7 3 -4 3 -10 0 -14z m233 13 c0 -3 -5 -8 -12 -12 -7 -4 -8 -3 -4 4 7 12 16 16 16 8z m1505 -6 c3 -5 4 -10 1 -10 -3 0 -8 5 -11 10 -3 6 -4 10 -1 10 3 0 8 -4 11 -10z m2701 -6 c18 -14 18 -14 -6 -3 -31 14 -36 19 -24 19 6 0 19 -7 30 -16z m-2166 2 c0 -3 -5 -8 -12 -12 -7 -4 -8 -3 -4 4 7 12 16 16 16 8z m310 0 c0 -3 -5 -8 -12 -12 -7 -4 -8 -3 -4 4 7 12 16 16 16 8z m-3610 -10 c0 -3 -5 -8 -12 -12 -7 -4 -8 -3 -4 4 7 12 16 16 16 8z m425 -6 c3 -5 4 -10 1 -10 -3 0 -8 5 -11 10 -3 6 -4 10 -1 10 3 0 8 -4 11 -10z m5672 -27 c-3 -10 -5 -4 -5 12 0 17 2 24 5 18 2 -7 2 -21 0 -30z m-4509 20 c-10 -2 -26 -2 -35 0 -10 3 -2 5 17 5 19 0 27 -2 18 -5z m829 0 c-4 -3 -10 -3 -14 0 -3 4 0 7 7 7 7 0 10 -3 7 -7z m790 -15 c-3 -8 -6 -5 -6 6 -1 11 2 17 5 13 3 -3 4 -12 1 -19z m5780 5 c-4 -3 -7 0 -7 7 0 7 3 10 7 7 3 -4 3 -10 0 -14z m-9027 -8 c-7 -8 -17 -15 -23 -15 -6 0 -2 7 9 15 25 19 30 19 14 0z m1560 11 c0 -3 -5 -8 -12 -12 -7 -4 -8 -3 -4 4 7 12 16 16 16 8z m130 -6 c0 -5 -2 -10 -4 -10 -3 0 -8 5 -11 10 -3 6 -1 10 4 10 6 0 11 -4 11 -10z m1614 -5 c-4 -8 -11 -15 -16 -15 -6 0 -5 6 2 15 7 8 14 15 16 15 2 0 1 -7 -2 -15z m1641 5 c3 -5 1 -10 -4 -10 -6 0 -11 5 -11 10 0 6 2 10 4 10 3 0 8 -4 11 -10z m4210 0 c-3 -5 -21 -9 -38 -9 l-32 2 35 7 c19 4 36 8 38 9 2 0 0 -3 -3 -9z m-9375 -15 c-7 -8 -17 -15 -23 -15 -6 0 -2 7 9 15 25 19 30 19 14 0z m1490 11 c0 -3 -5 -8 -12 -12 -7 -4 -8 -3 -4 4 7 12 16 16 16 8z m847 -13 c-4 -3 -7 0 -7 7 0 7 3 10 7 7 3 -4 3 -10 0 -14z m710 0 c-4 -3 -7 0 -7 7 0 7 3 10 7 7 3 -4 3 -10 0 -14z m2230 10 c-4 -3 -10 -3 -14 0 -3 4 0 7 7 7 7 0 10 -3 7 -7z m71 0 c-10 -2 -26 -2 -35 0 -10 3 -2 5 17 5 19 0 27 -2 18 -5z m99 0 c-4 -3 -10 -3 -14 0 -3 4 0 7 7 7 7 0 10 -3 7 -7z m70 1 c-3 -3 -12 -4 -19 -1 -8 3 -5 6 6 6 11 1 17 -2 13 -5z m56 -1 c-7 -2 -21 -2 -30 0 -10 3 -4 5 12 5 17 0 24 -2 18 -5z m3720 0 c-7 -2 -19 -2 -25 0 -7 3 -2 5 12 5 14 0 19 -2 13 -5z m-8518 -13 c3 -6 -1 -7 -9 -4 -18 7 -21 14 -7 14 6 0 13 -4 16 -10z m1170 0 c3 -5 4 -10 1 -10 -3 0 -8 5 -11 10 -3 6 -4 10 -1 10 3 0 8 -4 11 -10z m3041 -63 c1 -67 0 -69 -8 -27 -6 36 -3 100 5 100 1 0 2 -33 3 -73z m-5201 53 c3 -5 4 -10 1 -10 -3 0 -8 5 -11 10 -3 6 -4 10 -1 10 3 0 8 -4 11 -10z m1945 6 c0 -2 -8 -10 -17 -17 -16 -13 -17 -12 -4 4 13 16 21 21 21 13z m477 -28 c-3 -7 -5 -2 -5 12 0 14 2 19 5 13 2 -7 2 -19 0 -25z m373 29 c0 -2 -10 -12 -22 -23 l-23 -19 19 23 c18 21 26 27 26 19z m1240 -1 c0 -2 -8 -10 -17 -17 -16 -13 -17 -12 -4 4 13 16 21 21 21 13z m1777 -18 c-3 -8 -6 -5 -6 6 -1 11 2 17 5 13 3 -3 4 -12 1 -19z m593 18 c0 -3 -5 -8 -12 -12 -7 -4 -8 -3 -4 4 7 12 16 16 16 8z m3377 -3 c-4 -3 -10 -3 -14 0 -3 4 0 7 7 7 7 0 10 -3 7 -7z m-8760 -10 c-4 -3 -10 -3 -14 0 -3 4 0 7 7 7 7 0 10 -3 7 -7z m1513 -33 c-5 -22 -8 -27 -9 -13 -1 21 9 56 14 51 2 -2 0 -19 -5 -38z m745 30 c3 -5 4 -10 1 -10 -3 0 -8 5 -11 10 -3 6 -4 10 -1 10 3 0 8 -4 11 -10z m6550 0 c3 -6 -1 -7 -9 -4 -18 7 -21 14 -7 14 6 0 13 -4 16 -10z m-9665 -5 c0 -2 -10 -9 -22 -15 -22 -11 -22 -10 -4 4 21 17 26 19 26 11z m1187 -47 c-2 -13 -4 -5 -4 17 -1 22 1 32 4 23 2 -10 2 -28 0 -40z m847 36 c3 -8 2 -12 -4 -9 -6 3 -10 10 -10 16 0 14 7 11 14 -7z m851 6 c3 -6 -1 -7 -9 -4 -18 7 -21 14 -7 14 6 0 13 -4 16 -10z m-2695 -4 c0 -3 -5 -8 -12 -12 -7 -4 -8 -3 -4 4 7 12 16 16 16 8z m1321 -37 c-6 -24 -9 -28 -10 -12 -1 24 9 56 16 50 2 -3 0 -20 -6 -38z m4699 37 c0 -3 -5 -8 -12 -12 -7 -4 -8 -3 -4 4 7 12 16 16 16 8z m176 -55 c-9 -16 -21 -33 -26 -36 -6 -4 -2 8 10 27 11 18 20 42 21 53 1 16 2 17 6 3 2 -9 -3 -30 -11 -47z m269 49 c3 -5 1 -10 -4 -10 -6 0 -11 5 -11 10 0 6 2 10 4 10 3 0 8 -4 11 -10z m2052 3 c-4 -3 -10 -3 -14 0 -3 4 0 7 7 7 7 0 10 -3 7 -7z m1009 -25 l29 -33 -32 29 c-18 17 -33 31 -33 33 0 8 8 1 36 -29z m-6599 5 c-4 -3 -7 0 -7 7 0 7 3 10 7 7 3 -4 3 -10 0 -14z m3350 -15 c-3 -7 -5 -2 -5 12 0 14 2 19 5 13 2 -7 2 -19 0 -25z m461 25 c-49 -2 -127 -2 -175 0 -49 1 -9 3 87 3 96 0 136 -2 88 -3z m-6771 -10 c-4 -3 -10 -3 -14 0 -3 4 0 7 7 7 7 0 10 -3 7 -7z m2110 -10 c-4 -3 -7 0 -7 7 0 7 3 10 7 7 3 -4 3 -10 0 -14z m330 10 c-4 -3 -10 -3 -14 0 -3 4 0 7 7 7 7 0 10 -3 7 -7z m3580 0 c-4 -3 -10 -3 -14 0 -3 4 0 7 7 7 7 0 10 -3 7 -7z m-4130 -20 c-4 -3 -7 0 -7 7 0 7 3 10 7 7 3 -4 3 -10 0 -14z m1773 13 c0 -3 -5 -8 -12 -12 -7 -4 -8 -3 -4 4 7 12 16 16 16 8z m2327 -2 c-3 -3 -12 -4 -19 -1 -8 3 -5 6 6 6 11 1 17 -2 13 -5z m910 -91 c-2 -21 -4 -6 -4 32 0 39 2 55 4 38 2 -18 2 -50 0 -70z m-6927 83 c0 -3 -5 -8 -12 -12 -7 -4 -8 -3 -4 4 7 12 16 16 16 8z m435 -14 c-3 -3 -11 0 -18 7 -9 10 -8 11 6 5 10 -3 15 -9 12 -12z m442 11 c-4 -3 -10 -3 -14 0 -3 4 0 7 7 7 7 0 10 -3 7 -7z m1570 -10 c-4 -3 -7 0 -7 7 0 7 3 10 7 7 3 -4 3 -10 0 -14z m3511 10 c-10 -2 -26 -2 -35 0 -10 3 -2 5 17 5 19 0 27 -2 18 -5z m-5558 -7 c0 -3 -5 -8 -12 -12 -7 -4 -8 -3 -4 4 7 12 16 16 16 8z m817 -18 c-3 -8 -6 -5 -6 6 -1 11 2 17 5 13 3 -3 4 -12 1 -19z m930 0 c-3 -8 -6 -5 -6 6 -1 11 2 17 5 13 3 -3 4 -12 1 -19z m850 5 c-4 -3 -7 0 -7 7 0 7 3 10 7 7 3 -4 3 -10 0 -14z m1607 -18 c5 -22 4 -26 -4 -15 -5 8 -10 24 -10 34 0 26 6 18 14 -19z m1283 29 c-3 -3 -12 -4 -19 -1 -8 3 -5 6 6 6 11 1 17 -2 13 -5z m-5917 -8 c0 -2 -8 -10 -17 -17 -16 -13 -17 -12 -4 4 13 16 21 21 21 13z m5867 -2 c-3 -3 -12 -4 -19 -1 -8 3 -5 6 6 6 11 1 17 -2 13 -5z m-5350 -11 c-4 -3 -10 -3 -14 0 -3 4 0 7 7 7 7 0 10 -3 7 -7z m573 -1 c0 -5 -6 -16 -13 -27 -11 -14 -16 -15 -22 -5 -5 8 -4 11 3 6 6 -3 13 3 17 14 6 20 15 27 15 12z m1377 -9 c-4 -3 -7 0 -7 7 0 7 3 10 7 7 3 -4 3 -10 0 -14z m350 0 c-4 -3 -7 0 -7 7 0 7 3 10 7 7 3 -4 3 -10 0 -14z m3010 10 c-4 -3 -10 -3 -14 0 -3 4 0 7 7 7 7 0 10 -3 7 -7z m540 -10 c-4 -3 -7 0 -7 7 0 7 3 10 7 7 3 -4 3 -10 0 -14z m-4960 -10 c-4 -3 -7 0 -7 7 0 7 3 10 7 7 3 -4 3 -10 0 -14z m203 -20 c-11 -17 -11 -17 -6 0 3 10 6 24 7 30 0 9 2 9 5 0 3 -7 0 -20 -6 -30z m-1043 20 c-4 -3 -10 -3 -14 0 -3 4 0 7 7 7 7 0 10 -3 7 -7z m1610 -15 c-3 -8 -6 -5 -6 6 -1 11 2 17 5 13 3 -3 4 -12 1 -19z m80 5 c-4 -3 -7 0 -7 7 0 7 3 10 7 7 3 -4 3 -10 0 -14z m1413 14 c0 -2 -10 -12 -22 -23 l-23 -19 19 23 c18 21 26 27 26 19z m1450 -7 c0 -5 -2 -10 -4 -10 -3 0 -8 5 -11 10 -3 6 -1 10 4 10 6 0 11 -4 11 -10z m27 3 c-4 -3 -10 -3 -14 0 -3 4 0 7 7 7 7 0 10 -3 7 -7z m243 0 c0 -5 -37 -7 -82 -5 -143 4 -157 9 -35 10 64 1 117 -1 117 -5z m-4153 -20 c-4 -3 -7 0 -7 7 0 7 3 10 7 7 3 -4 3 -10 0 -14z m730 -20 c-3 -10 -5 -4 -5 12 0 17 2 24 5 18 2 -7 2 -21 0 -30z m500 20 c-4 -3 -7 0 -7 7 0 7 3 10 7 7 3 -4 3 -10 0 -14z m3257 -26 c-22 -24 -41 -42 -43 -40 -5 3 70 83 77 83 3 0 -13 -19 -34 -43z m3499 36 c-22 -4 -23 -9 -23 -103 0 -69 4 -100 13 -103 7 -3 5 -6 -5 -6 -16 -1 -18 11 -18 109 l0 110 28 -1 c23 -2 24 -2 5 -6z m214 1 c-3 -3 -12 -4 -19 -1 -8 3 -5 6 6 6 11 1 17 -2 13 -5z m-3197 -8 c0 -3 -5 -8 -12 -12 -7 -4 -8 -3 -4 4 7 12 16 16 16 8z m3235 -6 c3 -6 -1 -7 -9 -4 -18 7 -21 14 -7 14 6 0 13 -4 16 -10z m-4776 -37 c2 -2 0 -3 -6 -3 -6 0 -21 9 -34 21 l-24 20 30 -17 c17 -10 32 -19 34 -21z m435 21 c3 -8 2 -12 -4 -9 -6 3 -10 10 -10 16 0 14 7 11 14 -7z m246 13 c0 -2 -12 -14 -27 -28 l-28 -24 24 28 c23 25 31 32 31 24z m157 -14 c-4 -3 -7 0 -7 7 0 7 3 10 7 7 3 -4 3 -10 0 -14z m4140 0 c-4 -3 -7 0 -7 7 0 7 3 10 7 7 3 -4 3 -10 0 -14z m-8997 -3 c8 -5 11 -10 5 -10 -5 0 -17 5 -25 10 -8 5 -10 10 -5 10 6 0 17 -5 25 -10z m553 -10 c-3 -12 -8 -19 -11 -16 -5 6 5 36 12 36 2 0 2 -9 -1 -20z m5134 3 c-4 -3 -7 0 -7 7 0 7 3 10 7 7 3 -4 3 -10 0 -14z m-3900 -10 c-4 -3 -7 0 -7 7 0 7 3 10 7 7 3 -4 3 -10 0 -14z m564 -6 c-10 -9 -11 -8 -5 6 3 10 9 15 12 12 3 -3 0 -11 -7 -18z m1799 19 c0 -3 -5 -8 -12 -12 -7 -4 -8 -3 -4 4 7 12 16 16 16 8z m-4560 -10 c0 -3 -5 -8 -12 -12 -7 -4 -8 -3 -4 4 7 12 16 16 16 8z m1987 -13 c-4 -3 -7 0 -7 7 0 7 3 10 7 7 3 -4 3 -10 0 -14z m2642 -30 c12 -24 19 -43 16 -43 -5 0 -45 75 -45 86 0 11 6 2 29 -43z m1278 40 c-4 -3 -10 -3 -14 0 -3 4 0 7 7 7 7 0 10 -3 7 -7z m2345 -68 l-4 -75 204 -3 203 -2 -207 -3 -208 -2 0 73 c0 60 4 87 14 87 1 0 0 -34 -2 -75z m285 69 c-3 -3 -12 -4 -19 -1 -8 3 -5 6 6 6 11 1 17 -2 13 -5z m56 -1 c-7 -2 -19 -2 -25 0 -7 3 -2 5 12 5 14 0 19 -2 13 -5z m-7456 -20 c-4 -3 -7 0 -7 7 0 7 3 10 7 7 3 -4 3 -10 0 -14z m226 -43 c11 -13 10 -13 -5 -1 -10 7 -17 25 -17 40 l2 26 4 -25 c3 -14 10 -32 16 -40z m3125 53 c-10 -2 -26 -2 -35 0 -10 3 -2 5 17 5 19 0 27 -2 18 -5z m1389 0 c-4 -3 -10 -3 -14 0 -3 4 0 7 7 7 7 0 10 -3 7 -7z m-5907 -7 c0 -3 -5 -8 -12 -12 -7 -4 -8 -3 -4 4 7 12 16 16 16 8z m1940 -21 c0 -14 -4 -25 -9 -25 -4 0 -6 11 -3 25 2 14 6 25 8 25 2 0 4 -11 4 -25z m299 -15 c0 -10 -3 -8 -9 5 -12 27 -12 43 0 25 5 -8 9 -22 9 -30z m338 23 c-4 -3 -7 0 -7 7 0 7 3 10 7 7 3 -4 3 -10 0 -14z m2692 -17 c-7 -14 -16 -26 -20 -26 -5 0 0 13 9 29 20 36 27 34 11 -3z m608 28 c-3 -3 -12 -4 -19 -1 -8 3 -5 6 6 6 11 1 17 -2 13 -5z m666 -1 c-46 -2 -120 -2 -165 0 -46 1 -9 3 82 3 91 0 128 -2 83 -3z m145 0 c-10 -2 -26 -2 -35 0 -10 3 -2 5 17 5 19 0 27 -2 18 -5z m-6143 -13 c3 -5 4 -10 1 -10 -3 0 -8 5 -11 10 -3 6 -4 10 -1 10 3 0 8 -4 11 -10z m2870 -40 l30 -35 -28 25 c-16 14 -33 34 -39 45 -11 21 -10 20 37 -35z m2405 40 c-8 -5 -31 -9 -50 -9 l-35 2 35 7 c19 4 42 8 50 9 13 1 13 0 0 -9z m-4648 -29 c2 -17 1 -28 -4 -25 -8 5 -12 54 -4 54 2 0 6 -13 8 -29z m3598 -16 c24 -29 24 -29 2 -10 -13 11 -28 29 -34 40 -11 21 -8 18 32 -30z m1357 13 c-3 -7 -5 -2 -5 12 0 14 2 19 5 13 2 -7 2 -19 0 -25z m3320 10 c-3 -8 -6 -5 -6 6 -1 11 2 17 5 13 3 -3 4 -12 1 -19z m-8842 -6 c-3 -3 -11 0 -18 7 -9 10 -8 11 6 5 10 -3 15 -9 12 -12z m372 -4 c2 -17 0 -19 -7 -8 -5 8 -6 18 -4 22 8 12 10 10 11 -14z m1590 5 c-4 -3 -7 0 -7 7 0 7 3 10 7 7 3 -4 3 -10 0 -14z m-2627 3 c0 -2 -12 -11 -27 -20 l-28 -17 24 20 c23 21 31 25 31 17z m2094 -36 c4 -25 3 -31 -4 -20 -5 8 -10 26 -10 39 0 32 6 24 14 -19z m3633 33 c-4 -3 -10 -3 -14 0 -3 4 0 7 7 7 7 0 10 -3 7 -7z m-5010 -20 c-4 -3 -10 -3 -14 0 -3 4 0 7 7 7 7 0 10 -3 7 -7z m1643 -61 c0 -9 -42 32 -52 53 -6 11 3 5 20 -14 18 -18 32 -36 32 -39z m3127 -9 c-2 -16 -4 -3 -4 27 0 30 2 43 4 28 2 -16 2 -40 0 -55z m-5937 63 c0 -3 -5 -8 -12 -12 -7 -4 -8 -3 -4 4 7 12 16 16 16 8z m725 -6 c3 -6 -1 -7 -9 -4 -18 7 -21 14 -7 14 6 0 13 -4 16 -10z m1196 -7 c13 -16 12 -17 -3 -4 -17 13 -22 21 -14 21 2 0 10 -8 17 -17z m276 -10 c-4 -3 -7 0 -7 7 0 7 3 10 7 7 3 -4 3 -10 0 -14z m858 7 c-3 -5 -12 -10 -18 -10 -7 0 -6 4 3 10 19 12 23 12 15 0z m2142 -7 c-4 -3 -7 0 -7 7 0 7 3 10 7 7 3 -4 3 -10 0 -14z m910 -30 c-3 -10 -5 -2 -5 17 0 19 2 27 5 18 2 -10 2 -26 0 -35z m530 25 c-3 -8 -6 -5 -6 6 -1 11 2 17 5 13 3 -3 4 -12 1 -19z m-5967 8 c0 -2 -8 -10 -17 -17 -16 -13 -17 -12 -4 4 13 16 21 21 21 13z m839 -29 c0 -21 -1 -21 -9 -2 -12 28 -12 37 0 30 6 -3 10 -16 9 -28z m918 11 c-3 -8 -6 -5 -6 6 -1 11 2 17 5 13 3 -3 4 -12 1 -19z m855 0 c-7 -7 -12 -8 -12 -2 0 14 12 26 19 19 2 -3 -1 -11 -7 -17z m1624 0 c13 -16 14 -19 2 -10 -13 10 -17 10 -21 0 -3 -7 -6 -3 -6 10 -1 27 1 27 25 0z m-4929 -55 c-2 -16 -4 -5 -4 22 0 28 2 40 4 28 2 -13 2 -35 0 -50z m5358 57 c3 -6 -1 -7 -9 -4 -18 7 -21 14 -7 14 6 0 13 -4 16 -10z m375 6 c0 -3 -5 -8 -12 -12 -7 -4 -8 -3 -4 4 7 12 16 16 16 8z m-5380 -21 c-7 -8 -17 -15 -23 -15 -6 0 -2 7 9 15 25 19 30 19 14 0z m1625 5 c3 -5 4 -10 1 -10 -3 0 -8 5 -11 10 -3 6 -4 10 -1 10 3 0 8 -4 11 -10z m225 6 c0 -2 -7 -7 -16 -10 -8 -3 -12 -2 -9 4 6 10 25 14 25 6z m3010 0 c0 -2 -7 -7 -16 -10 -8 -3 -12 -2 -9 4 6 10 25 14 25 6z m4580 0 c0 -3 -4 -8 -10 -11 -5 -3 -10 -1 -10 4 0 6 5 11 10 11 6 0 10 -2 10 -4z m172 -28 c-8 -8 -9 -4 -5 13 4 13 8 18 11 10 2 -7 -1 -18 -6 -23z m-8611 5 c13 -16 12 -17 -3 -4 -17 13 -22 21 -14 21 2 0 10 -8 17 -17z m374 7 c3 -5 1 -10 -4 -10 -6 0 -11 5 -11 10 0 6 2 10 4 10 3 0 8 -4 11 -10z m859 -6 c3 -8 2 -12 -4 -9 -6 3 -10 10 -10 16 0 14 7 11 14 -7z m1123 -36 c-2 -13 -4 -5 -4 17 -1 22 1 32 4 23 2 -10 2 -28 0 -40z m2718 32 c-10 -11 -22 -20 -28 -20 -5 0 1 9 14 20 31 25 37 25 14 0z m-4410 0 c3 -5 4 -10 1 -10 -3 0 -8 5 -11 10 -3 6 -4 10 -1 10 3 0 8 -4 11 -10z m1005 6 c0 -3 -5 -8 -12 -12 -7 -4 -8 -3 -4 4 7 12 16 16 16 8z m1773 -13 c-7 -2 -19 -2 -25 0 -7 3 -2 5 12 5 14 0 19 -2 13 -5z m80 0 c-13 -2 -33 -2 -45 0 -13 2 -3 4 22 4 25 0 35 -2 23 -4z m284 0 c-4 -3 -10 -3 -14 0 -3 4 0 7 7 7 7 0 10 -3 7 -7z m270 0 c-4 -3 -10 -3 -14 0 -3 4 0 7 7 7 7 0 10 -3 7 -7z m1408 -3 c3 -5 4 -10 1 -10 -3 0 -8 5 -11 10 -3 6 -4 10 -1 10 3 0 8 -4 11 -10z m2902 3 c-4 -3 -10 -3 -14 0 -3 4 0 7 7 7 7 0 10 -3 7 -7z m-9137 -7 c0 -3 -5 -8 -12 -12 -7 -4 -8 -3 -4 4 7 12 16 16 16 8z m1498 -3 c-10 -2 -28 -2 -40 0 -13 2 -5 4 17 4 22 1 32 -1 23 -4z m819 0 c-4 -3 -10 -3 -14 0 -3 4 0 7 7 7 7 0 10 -3 7 -7z m50 0 c-4 -3 -10 -3 -14 0 -3 4 0 7 7 7 7 0 10 -3 7 -7z m799 -25 l29 -33 -32 29 c-31 28 -38 36 -30 36 2 0 16 -15 33 -32z m1701 25 c-4 -3 -10 -3 -14 0 -3 4 0 7 7 7 7 0 10 -3 7 -7z m150 0 c-4 -3 -10 -3 -14 0 -3 4 0 7 7 7 7 0 10 -3 7 -7z m547 -22 c-2 -3 -12 3 -22 13 -16 17 -16 18 5 5 12 -7 20 -15 17 -18z m381 19 c3 -6 -1 -7 -9 -4 -18 7 -21 14 -7 14 6 0 13 -4 16 -10z m2682 -97 c-2 -21 -4 -4 -4 37 0 41 2 58 4 38 2 -21 2 -55 0 -75z m-8937 93 c0 -3 -5 -8 -12 -12 -7 -4 -8 -3 -4 4 7 12 16 16 16 8z m1074 -12 c3 -8 2 -12 -4 -9 -6 3 -10 10 -10 16 0 14 7 11 14 -7z m1246 -9 c14 -19 14 -19 -2 -6 -10 7 -18 18 -18 24 0 6 1 8 3 6 1 -2 9 -13 17 -24z m1455 -25 l30 -35 -28 25 c-16 14 -33 34 -39 45 -11 21 -10 20 37 -35z m998 43 c-7 -2 -21 -2 -30 0 -10 3 -4 5 12 5 17 0 24 -2 18 -5z m505 0 c-16 -2 -40 -2 -55 0 -16 2 -3 4 27 4 30 0 43 -2 28 -4z m-4031 -25 c-3 -8 -6 -5 -6 6 -1 11 2 17 5 13 3 -3 4 -12 1 -19z m1723 2 c-6 -11 -13 -20 -16 -20 -2 0 0 9 6 20 6 11 13 20 16 20 2 0 0 -9 -6 -20z m-2283 3 c-4 -3 -10 -3 -14 0 -3 4 0 7 7 7 7 0 10 -3 7 -7z m1433 3 c0 -3 -5 -8 -12 -12 -7 -4 -8 -3 -4 4 7 12 16 16 16 8z m7520 -15 c-5 -11 -15 -23 -21 -27 -6 -3 -3 5 6 20 20 30 30 35 15 7z m-9690 5 c0 -2 -12 -11 -27 -20 l-28 -17 24 20 c23 21 31 25 31 17z m5997 -3 c-4 -3 -10 -3 -14 0 -3 4 0 7 7 7 7 0 10 -3 7 -7z m60 0 c-4 -3 -10 -3 -14 0 -3 4 0 7 7 7 7 0 10 -3 7 -7z m264 -16 c-10 -9 -11 -8 -5 6 3 10 9 15 12 12 3 -3 0 -11 -7 -18z m-6031 9 c0 -3 -5 -8 -12 -12 -7 -4 -8 -3 -4 4 7 12 16 16 16 8z m3177 -399 c-1 -73 -3 -10 -3 138 0 149 2 208 3 132 2 -76 2 -198 0 -270z m-1069 368 c-3 -3 -9 2 -12 12 -6 14 -5 15 5 6 7 -7 10 -15 7 -18z m3402 -44 l25 -24 -33 24 c-18 12 -39 34 -48 48 l-15 26 23 -25 c13 -14 34 -36 48 -49z m1227 32 c-3 -10 -5 -4 -5 12 0 17 2 24 5 18 2 -7 2 -21 0 -30z m-7201 12 c25 -19 14 -19 -22 0 -16 8 -22 15 -13 15 8 0 24 -7 35 -15z m434 11 c0 -2 -12 -11 -27 -20 l-28 -17 24 20 c23 21 31 25 31 17z m877 -58 c-2 -13 -4 -3 -4 22 0 25 2 35 4 23 2 -13 2 -33 0 -45z m438 22 c21 -22 37 -40 34 -40 -3 0 -23 18 -44 40 -21 22 -37 40 -34 40 3 0 23 -18 44 -40z m1395 5 c-19 -19 -37 -35 -42 -35 -8 0 63 69 71 70 3 0 -10 -16 -29 -35z m-3030 21 c0 -3 -5 -8 -12 -12 -7 -4 -8 -3 -4 4 7 12 16 16 16 8z m907 -3 c-4 -3 -10 -3 -14 0 -3 4 0 7 7 7 7 0 10 -3 7 -7z m1283 -8 c0 -2 -10 -9 -22 -15 -22 -11 -22 -10 -4 4 21 17 26 19 26 11z m7520 0 c0 -6 -76 -45 -87 -45 -4 1 12 12 37 25 50 27 50 27 50 20z m-9769 -23 c-7 -2 -18 1 -23 6 -8 8 -4 9 13 5 13 -4 18 -8 10 -11z m6404 8 c-3 -5 -20 -19 -38 -30 -32 -22 -32 -22 3 9 37 32 45 37 35 21z m-5350 -18 c-3 -3 -11 0 -18 7 -9 10 -8 11 6 5 10 -3 15 -9 12 -12z m-755 4 c0 -3 -5 -8 -12 -12 -7 -4 -8 -3 -4 4 7 12 16 16 16 8z m1117 -28 c-3 -7 -5 -2 -5 12 0 14 2 19 5 13 2 -7 2 -19 0 -25z m5120 5 c-4 -3 -7 0 -7 7 0 7 3 10 7 7 3 -4 3 -10 0 -14z m860 -15 c-3 -7 -5 -2 -5 12 0 14 2 19 5 13 2 -7 2 -19 0 -25z m-3382 12 c3 -5 4 -10 1 -10 -3 0 -8 5 -11 10 -3 6 -4 10 -1 10 3 0 8 -4 11 -10z m-2244 -17 c13 -17 13 -17 -6 -3 -11 8 -22 16 -24 17 -2 2 0 3 6 3 6 0 17 -8 24 -17z m385 2 c-11 -8 -25 -15 -30 -15 -6 1 0 7 14 15 32 19 40 18 16 0z m459 5 c3 -5 4 -10 1 -10 -3 0 -8 5 -11 10 -3 6 -4 10 -1 10 3 0 8 -4 11 -10z m399 -5 c-10 -8 -23 -15 -28 -15 -6 0 -1 7 10 15 10 8 23 15 28 15 6 0 1 -7 -10 -15z m4121 5 c-3 -5 -12 -10 -18 -10 -7 0 -6 4 3 10 19 12 23 12 15 0z m2492 4 c-3 -3 -12 -4 -19 -1 -8 3 -5 6 6 6 11 1 17 -2 13 -5z m-3000 -11 c-4 -3 -10 -3 -14 0 -3 4 0 7 7 7 7 0 10 -3 7 -7z m76 0 c-7 -2 -21 -2 -30 0 -10 3 -4 5 12 5 17 0 24 -2 18 -5z m375 0 c-10 -2 -26 -2 -35 0 -10 3 -2 5 17 5 19 0 27 -2 18 -5z m-3278 -36 c13 -5 13 -6 -1 -6 -9 -1 -24 9 -35 22 -19 22 -19 22 1 6 11 -9 27 -19 35 -22z m237 16 c-4 -3 -7 0 -7 7 0 7 3 10 7 7 3 -4 3 -10 0 -14z m1970 10 c-4 -3 -10 -3 -14 0 -3 4 0 7 7 7 7 0 10 -3 7 -7z m-5797 -7 c0 -3 -5 -8 -12 -12 -7 -4 -8 -3 -4 4 7 12 16 16 16 8z m1033 -8 c-2 -5 -10 -8 -18 -8 -8 0 -16 3 -18 8 -3 4 5 7 18 7 13 0 21 -3 18 -7z m572 2 c3 -5 4 -10 1 -10 -3 0 -8 5 -11 10 -3 6 -4 10 -1 10 3 0 8 -4 11 -10z m290 0 c-3 -5 -12 -10 -18 -10 -7 0 -6 4 3 10 19 12 23 12 15 0z m570 0 c3 -6 -1 -7 -9 -4 -18 7 -21 14 -7 14 6 0 13 -4 16 -10z m3372 4 c-3 -3 -12 -4 -19 -1 -8 3 -5 6 6 6 11 1 17 -2 13 -5z m220 -1 c-4 -3 -10 -3 -14 0 -3 4 0 7 7 7 7 0 10 -3 7 -7z m-3320 -10 c-4 -3 -10 -3 -14 0 -3 4 0 7 7 7 7 0 10 -3 7 -7z m3241 0 c-21 -2 -57 -2 -80 0 -24 2 -7 4 37 4 44 0 63 -2 43 -4z m-4311 -10 c-4 -3 -10 -3 -14 0 -3 4 0 7 7 7 7 0 10 -3 7 -7z m180 0 c-4 -3 -10 -3 -14 0 -3 4 0 7 7 7 7 0 10 -3 7 -7z m808 -8 c6 -2 -17 -3 -50 -4 -33 0 -69 4 -80 8 -19 8 107 4 130 -4z m42 8 c-4 -3 -10 -3 -14 0 -3 4 0 7 7 7 7 0 10 -3 7 -7z m950 0 c-4 -3 -10 -3 -14 0 -3 4 0 7 7 7 7 0 10 -3 7 -7z m160 0 c-4 -3 -10 -3 -14 0 -3 4 0 7 7 7 7 0 10 -3 7 -7z m-3867 -18 c-7 -8 -17 -15 -23 -15 -6 0 -2 7 9 15 25 19 30 19 14 0z m1833 8 c-18 -2 -48 -2 -65 0 -18 2 -4 4 32 4 36 0 50 -2 33 -4z m6200 -101 c30 -13 32 -19 12 -45 -8 -12 -22 -17 -37 -15 -24 5 -22 6 30 24 16 6 15 7 -3 17 -11 7 -45 37 -75 67 -51 50 -51 51 -5 9 27 -25 62 -51 78 -57z m-6780 83 c-3 -9 -8 -14 -10 -11 -3 3 -2 9 2 15 9 16 15 13 8 -4z m5824 -2 c-4 -3 -7 0 -7 7 0 7 3 10 7 7 3 -4 3 -10 0 -14z m-10 -30 c-4 -3 -7 0 -7 7 0 7 3 10 7 7 3 -4 3 -10 0 -14z m-5830 -10 c-4 -3 -7 0 -7 7 0 7 3 10 7 7 3 -4 3 -10 0 -14z m6088 -3 c3 -5 4 -10 1 -10 -3 0 -8 5 -11 10 -3 6 -4 10 -1 10 3 0 8 -4 11 -10z m-7445 -24 c0 -2 -7 -7 -16 -10 -8 -3 -12 -2 -9 4 6 10 25 14 25 6z m7177 -28 c-3 -7 -5 -2 -5 12 0 14 2 19 5 13 2 -7 2 -19 0 -25z m322 13 c41 -31 5 -76 -42 -53 -20 10 -18 11 16 11 43 1 52 27 12 37 -14 3 -25 10 -25 15 0 14 13 10 39 -10z m-6168 -14 c-10 -9 -11 -8 -5 6 3 10 9 15 12 12 3 -3 0 -11 -7 -18z m6496 -9 c-3 -8 -6 -5 -6 6 -1 11 2 17 5 13 3 -3 4 -12 1 -19z m-7897 -3 c0 -2 -20 -18 -45 -35 -25 -17 -45 -29 -45 -26 0 4 80 64 88 66 1 0 2 -2 2 -5z m7484 -3 c2 -4 -4 -8 -15 -8 -10 0 -19 4 -19 8 0 4 6 8 14 8 8 0 17 -4 20 -8z m646 4 c0 -2 -7 -7 -16 -10 -8 -3 -12 -2 -9 4 6 10 25 14 25 6z m-893 -28 c-3 -8 -6 -5 -6 6 -1 11 2 17 5 13 3 -3 4 -12 1 -19z m870 -20 c-3 -8 -6 -5 -6 6 -1 11 2 17 5 13 3 -3 4 -12 1 -19z m-6777 8 c0 -3 -5 -8 -12 -12 -7 -4 -8 -3 -4 4 7 12 16 16 16 8z m5893 -21 c-3 -9 -8 -14 -10 -11 -3 3 -2 9 2 15 9 16 15 13 8 -4z m654 -2 c-4 -3 -7 0 -7 7 0 7 3 10 7 7 3 -4 3 -10 0 -14z m-420 -15 c-3 -8 -6 -5 -6 6 -1 11 2 17 5 13 3 -3 4 -12 1 -19z m-167 -10 c0 -18 -2 -20 -9 -8 -6 8 -7 18 -5 22 9 14 14 9 14 -14z m-7333 -14 c-5 -5 -57 13 -57 20 0 3 14 0 31 -6 16 -6 28 -12 26 -14z m1282 12 c-2 -2 -15 -9 -29 -15 -24 -11 -24 -11 -6 3 16 13 49 24 35 12z m6698 -28 c-3 -7 -5 -2 -5 12 0 14 2 19 5 13 2 -7 2 -19 0 -25z m-740 5 c-4 -3 -7 0 -7 7 0 7 3 10 7 7 3 -4 3 -10 0 -14z m270 0 c-4 -3 -7 0 -7 7 0 7 3 10 7 7 3 -4 3 -10 0 -14z m-56 -15 c11 -21 11 -22 -4 -9 -10 7 -17 17 -17 22 0 15 9 10 21 -13z m665 -36 c-3 -3 -7 1 -7 9 -1 8 -5 -2 -9 -21 -7 -32 -7 -30 -8 20 -1 55 -1 55 14 27 9 -16 13 -31 10 -35z m-8071 38 c3 -5 4 -10 1 -10 -3 0 -8 5 -11 10 -3 6 -4 10 -1 10 3 0 8 -4 11 -10z m1170 0 c-3 -5 -12 -10 -18 -10 -7 0 -6 4 3 10 19 12 23 12 15 0z m6820 -47 c-9 -50 -17 -34 -9 18 4 24 9 38 12 31 2 -7 1 -29 -3 -49z m-745 43 c0 -3 -5 -8 -12 -12 -7 -4 -8 -3 -4 4 7 12 16 16 16 8z m27 -33 c-3 -10 -5 -4 -5 12 0 17 2 24 5 18 2 -7 2 -21 0 -30z m71 -38 c0 -22 -2 -32 -5 -22 -4 15 -7 16 -20 5 -14 -12 -15 -11 -5 9 7 12 12 37 13 55 0 27 2 30 9 13 5 -11 8 -38 8 -60z m141 35 c0 -10 -3 -8 -9 5 -12 27 -12 43 0 25 5 -8 9 -22 9 -30z m-6354 20 c-3 -5 -12 -10 -18 -10 -7 0 -6 4 3 10 19 12 23 12 15 0z m7008 -10 c3 -11 1 -23 -4 -26 -5 -3 -9 6 -9 20 0 31 6 34 13 6z m-7043 -4 c0 -3 -5 -8 -12 -12 -7 -4 -8 -3 -4 4 7 12 16 16 16 8z m6327 -13 c-4 -3 -7 0 -7 7 0 7 3 10 7 7 3 -4 3 -10 0 -14z m-7310 0 c-4 -3 -10 -3 -14 0 -3 4 0 7 7 7 7 0 10 -3 7 -7z m943 -13 c-8 -5 -19 -10 -25 -10 -5 0 -3 5 5 10 8 5 20 10 25 10 6 0 3 -5 -5 -10z m7045 -10 c10 -11 13 -20 7 -20 -6 0 -16 9 -22 20 -6 11 -9 20 -7 20 2 0 12 -9 22 -20z m-4720 -15 c0 -14 -3 -25 -7 -25 -10 0 -10 34 -1 43 3 4 7 7 7 7 1 0 1 -11 1 -25z m-3190 5 c3 -5 4 -10 1 -10 -3 0 -8 5 -11 10 -3 6 -4 10 -1 10 3 0 8 -4 11 -10z m7942 -7 c-4 -3 -7 0 -7 7 0 7 3 10 7 7 3 -4 3 -10 0 -14z m-7137 3 c0 -2 -8 -10 -17 -17 -16 -13 -17 -12 -4 4 13 16 21 21 21 13z m6477 -2 c-3 -3 -12 -4 -19 -1 -8 3 -5 6 6 6 11 1 17 -2 13 -5z m-7232 -14 c3 -5 1 -10 -4 -10 -6 0 -11 5 -11 10 0 6 2 10 4 10 3 0 8 -4 11 -10z m55 -26 c0 -2 -9 0 -20 6 -11 6 -20 13 -20 16 0 2 9 0 20 -6 11 -6 20 -13 20 -16z m7657 19 c-4 -3 -10 -3 -14 0 -3 4 0 7 7 7 7 0 10 -3 7 -7z m100 -10 c-4 -3 -7 0 -7 7 0 7 3 10 7 7 3 -4 3 -10 0 -14z m-4604 -10 c-7 -2 -21 -2 -30 0 -10 3 -4 5 12 5 17 0 24 -2 18 -5z m44 1 c-3 -3 -12 -4 -19 -1 -8 3 -5 6 6 6 11 1 17 -2 13 -5z m40 -1 c-4 -3 -10 -3 -14 0 -3 4 0 7 7 7 7 0 10 -3 7 -7z m30 0 c-4 -3 -10 -3 -14 0 -3 4 0 7 7 7 7 0 10 -3 7 -7z m40 0 c-4 -3 -10 -3 -14 0 -3 4 0 7 7 7 7 0 10 -3 7 -7z m3790 1 c-3 -3 -12 -4 -19 -1 -8 3 -5 6 6 6 11 1 17 -2 13 -5z m-7062 -14 c3 -5 4 -10 1 -10 -3 0 -8 5 -11 10 -3 6 -4 10 -1 10 3 0 8 -4 11 -10z m575 6 c0 -3 -5 -8 -12 -12 -7 -4 -8 -3 -4 4 7 12 16 16 16 8z m-545 -16 c3 -5 1 -10 -4 -10 -6 0 -11 5 -11 10 0 6 2 10 4 10 3 0 8 -4 11 -10z m505 -4 c0 -3 -5 -8 -12 -12 -7 -4 -8 -3 -4 4 7 12 16 16 16 8z m-423 -33 c-4 -3 -10 -3 -14 0 -3 4 0 7 7 7 7 0 10 -3 7 -7z m373 3 c0 -2 -7 -7 -16 -10 -8 -3 -12 -2 -9 4 6 10 25 14 25 6z m-333 -23 c-4 -3 -10 -3 -14 0 -3 4 0 7 7 7 7 0 10 -3 7 -7z m277 -7 c-10 -8 -21 -12 -24 -10 -5 6 21 24 34 24 6 0 1 -6 -10 -14z m-247 -3 c-4 -3 -10 -3 -14 0 -3 4 0 7 7 7 7 0 10 -3 7 -7z m213 -17 c0 -2 -7 -7 -16 -10 -8 -3 -12 -2 -9 4 6 10 25 14 25 6z m-40 -20 c0 -2 -7 -7 -16 -10 -8 -3 -12 -2 -9 4 6 10 25 14 25 6z m-53 -13 c-4 -3 -10 -3 -14 0 -3 4 0 7 7 7 7 0 10 -3 7 -7z"/>
</g>
<g id="layer103" fill="#f8f9fa" stroke="none">
<path d="M792 1685 c-45 -31 -88 -53 -94 -49 -6 4 -8 3 -5 -3 4 -6 -96 -78 -228 -164 l-235 -153 0 -56 0 -56 55 -27 c64 -31 55 -34 188 55 48 32 92 56 98 53 5 -4 8 -2 7 4 -3 8 354 251 369 251 3 0 146 -59 318 -131 l313 -132 10 -36 c19 -64 22 -125 9 -161 -7 -19 -19 -34 -26 -32 -7 1 -162 65 -345 142 -183 77 -337 140 -344 140 -12 0 -74 -39 -429 -273 l-223 -147 0 -55 0 -55 50 -25 c27 -14 55 -25 62 -25 7 0 119 69 248 154 129 85 238 152 241 150 4 -2 10 3 13 12 4 9 13 14 22 10 8 -3 13 -2 10 3 -3 5 11 20 32 34 l38 24 309 -129 c171 -71 315 -136 321 -144 22 -28 37 -137 24 -182 -6 -23 -15 -42 -20 -42 -14 0 -363 149 -370 158 -3 4 -13 8 -22 10 -34 6 -118 49 -110 57 4 5 2 5 -5 1 -14 -8 -64 14 -58 25 3 4 -4 5 -15 2 -11 -3 -20 -1 -20 4 0 32 -76 -10 -403 -224 -199 -130 -363 -237 -365 -238 -2 -2 162 -73 363 -159 l366 -156 70 35 c38 20 69 33 69 29 0 -3 7 2 16 10 8 9 20 14 25 11 5 -4 9 -1 9 5 0 6 5 8 10 5 6 -3 10 -2 10 2 0 14 59 45 72 37 7 -4 8 -3 4 4 -7 12 5 16 34 12 8 -1 12 2 8 6 -5 4 88 58 205 119 l212 112 23 57 c47 118 53 239 15 341 -18 47 -18 52 -1 101 28 82 33 171 14 255 -24 111 -40 130 -135 169 -44 19 -81 38 -81 42 0 5 -4 6 -10 3 -5 -3 -10 -1 -10 6 0 7 -3 10 -6 6 -9 -9 -65 14 -58 24 3 5 -1 6 -8 4 -7 -3 -128 44 -268 105 -140 61 -262 112 -270 115 -9 3 -53 -20 -98 -50z"/>
<path d="M710 1680 c0 -5 10 -10 23 -10 18 0 19 2 7 10 -19 13 -30 13 -30 0z"/>
<path d="M9547 1564 c-9 -10 2 -24 18 -24 9 0 12 6 9 15 -6 16 -17 19 -27 9z"/>
<path d="M8700 1520 c0 -5 4 -10 9 -10 6 0 13 5 16 10 3 6 -1 10 -9 10 -9 0 -16 -4 -16 -10z"/>
<path d="M10193 1493 c4 -3 10 -3 14 0 3 4 0 7 -7 7 -7 0 -10 -3 -7 -7z"/>
<path d="M6445 1459 c-96 -6 -155 -24 -204 -60 -33 -24 -81 -91 -81 -112 0 -16 113 -73 118 -58 9 27 46 61 90 82 60 30 179 33 229 6 86 -46 83 -144 -5 -179 -15 -5 -65 -16 -112 -24 -121 -20 -184 -42 -229 -80 -48 -42 -65 -87 -59 -164 9 -130 116 -203 298 -203 111 1 188 28 248 90 23 24 42 47 42 51 0 4 -25 20 -55 35 l-56 27 -37 -29 c-64 -49 -142 -64 -224 -41 -70 20 -101 96 -55 137 29 27 41 30 160 49 100 15 193 49 230 82 59 53 76 177 36 260 -33 68 -96 106 -214 131 -16 3 -70 3 -120 0z"/>
<path d="M6897 1453 c-4 -3 -7 -176 -7 -384 l0 -377 33 4 c17 1 148 3 290 3 l257 1 0 74 c0 70 -10 100 -25 76 -4 -6 -81 -10 -206 -10 l-199 0 0 85 0 85 205 0 205 0 0 70 c0 66 -4 75 -31 72 -4 -1 -89 -2 -190 -2 l-184 -2 -3 86 -3 86 216 0 216 0 -3 68 -3 67 -281 3 c-154 1 -283 -1 -287 -5z"/>
<path d="M7578 1038 c-4 -450 -7 -483 -55 -606 -14 -34 -22 -66 -18 -70 6 -7 17 5 59 63 28 41 40 19 28 -56 -10 -62 -4 -88 16 -75 5 3 12 33 16 66 4 33 11 60 15 60 5 0 11 -33 15 -72 3 -40 6 -77 8 -83 1 -5 21 -11 45 -11 38 -1 43 1 43 20 0 13 -3 17 -8 9 -4 -7 -18 -11 -30 -10 -21 1 -22 6 -22 76 0 41 3 71 8 67 4 -4 18 -31 32 -59 14 -29 33 -53 42 -55 15 -3 15 4 -7 69 -42 122 -31 168 34 135 38 -20 81 -21 81 -2 0 8 -12 18 -27 24 -16 5 -50 30 -78 56 l-50 48 -3 344 c-3 280 -1 344 10 344 7 0 96 2 198 3 l185 2 3 68 3 67 -270 0 -271 0 -2 -422z"/>
<path d="M8235 1448 c-3 -7 -6 -204 -8 -438 -2 -237 -9 -449 -14 -480 -12 -63 -32 -112 -44 -105 -4 3 -11 0 -15 -6 -4 -8 -3 -9 4 -5 7 4 12 3 12 -3 0 -5 -4 -13 -10 -16 -15 -9 -12 -35 4 -35 8 0 25 18 37 40 21 37 49 60 49 40 0 -6 -6 -10 -12 -10 -8 0 -9 -3 -3 -8 14 -10 14 -53 1 -44 -23 14 -35 9 -47 -19 -11 -29 -5 -54 9 -33 4 6 15 13 25 17 14 5 17 1 17 -23 0 -17 5 -30 10 -30 14 0 30 44 30 83 0 18 4 38 9 45 10 16 21 -40 21 -105 0 -39 13 -63 28 -49 3 4 5 40 3 81 -1 43 2 75 7 75 5 0 20 -24 32 -52 28 -67 41 -83 51 -67 4 6 -4 44 -18 83 -16 47 -22 82 -18 104 6 35 17 39 55 17 29 -16 76 -19 85 -5 3 5 -11 18 -32 29 -21 11 -57 39 -81 63 l-42 44 2 343 3 343 193 -2 192 -1 0 71 0 70 -265 0 c-203 0 -267 -3 -270 -12z"/>
<path d="M8875 1447 c-3 -6 -4 -174 -3 -372 l3 -360 260 -3 c143 -1 270 0 283 3 20 5 22 11 22 70 l0 65 -211 2 -211 3 0 80 0 80 188 3 c104 1 195 4 202 7 8 3 12 27 12 70 l0 65 -200 0 -200 0 0 80 0 80 208 2 207 3 3 68 3 67 -281 0 c-216 0 -282 -3 -285 -13z"/>
<path d="M9550 1080 l0 -380 173 0 c94 0 201 5 237 10 133 22 211 104 218 230 2 38 -1 85 -8 105 -17 53 -73 111 -126 131 -24 9 -44 19 -44 21 0 2 48 58 108 124 59 66 109 124 110 129 2 6 -31 10 -81 10 l-85 0 -109 -125 -108 -125 -72 3 -73 2 0 122 0 123 -70 0 -70 0 0 -380z m409 -13 c93 -25 107 -168 21 -212 -21 -11 -62 -15 -160 -15 l-130 0 0 113 c0 63 3 117 7 121 9 8 227 3 262 -7z"/>
<path d="M9964 1026 c-6 -6 -9 -17 -6 -24 5 -17 42 -15 42 3 0 8 1 18 3 22 4 11 -28 11 -39 -1z"/>
<path d="M10010 1000 c0 -7 3 -10 7 -7 3 4 3 10 0 14 -4 3 -7 0 -7 -7z"/>
<path d="M9950 894 c0 -8 5 -12 10 -9 6 4 8 11 5 16 -9 14 -15 11 -15 -7z"/>
<path d="M5661 1434 c-103 -28 -169 -96 -197 -206 -18 -69 -14 -142 11 -202 8 -20 13 -36 9 -36 -18 0 96 -96 135 -113 57 -25 154 -33 219 -17 127 30 193 114 200 257 l5 83 -222 0 c-247 0 -247 0 -190 65 19 21 46 39 72 46 56 15 140 5 184 -21 l36 -21 43 42 c24 23 41 46 38 51 -13 20 -88 59 -141 73 -70 18 -131 18 -202 -1z m239 -372 c0 -53 -103 -100 -182 -83 -49 11 -94 42 -92 65 1 9 -2 14 -6 11 -4 -3 -10 1 -13 9 -5 12 20 14 144 15 140 2 149 0 149 -17z"/>
<path d="M5640 1036 c0 -8 31 -36 41 -36 5 0 0 9 -11 20 -19 19 -30 25 -30 16z"/>
<path d="M3890 1430 c-8 -5 -57 -10 -107 -10 l-93 0 0 -575 0 -575 110 0 110 0 0 320 c0 176 3 320 8 320 4 -1 52 -58 107 -128 l100 -127 123 -3 c67 -1 122 0 122 4 0 4 -34 50 -77 102 -42 52 -76 101 -76 109 0 7 -3 11 -5 8 -8 -8 -32 16 -26 26 3 5 1 9 -5 9 -5 0 -26 20 -46 45 l-37 44 173 208 172 208 -144 3 c-139 2 -144 2 -162 -20 -10 -13 -15 -16 -11 -8 4 9 3 12 -2 7 -5 -5 -9 -13 -9 -18 0 -5 -45 -65 -100 -135 l-100 -126 -5 161 c-4 139 -7 159 -20 151z"/>
<path d="M2173 1411 c-153 -52 -253 -199 -253 -369 0 -161 74 -286 213 -360 48 -25 61 -27 162 -27 132 0 176 16 260 96 95 89 136 220 115 356 -11 65 -46 151 -76 184 -8 9 -11 19 -7 23 5 4 1 6 -7 4 -8 -2 -14 3 -13 9 2 7 0 12 -5 11 -4 -2 -23 10 -43 25 -85 65 -237 86 -346 48z m217 -193 c67 -37 106 -125 93 -213 -29 -197 -282 -234 -358 -53 -20 50 -19 134 4 183 21 47 70 92 109 101 15 3 32 7 37 9 21 5 81 -8 115 -27z"/>
<path d="M2401 1183 c-1 -6 -9 -13 -18 -15 -11 -2 -14 -6 -8 -10 16 -10 38 7 32 23 -3 9 -6 9 -6 2z"/>
<path d="M2388 893 c7 -3 16 -2 19 1 4 3 -2 6 -13 5 -11 0 -14 -3 -6 -6z"/>
<path d="M6013 1413 c4 -3 10 -3 14 0 3 4 0 7 -7 7 -7 0 -10 -3 -7 -7z"/>
<path d="M6811 1404 c0 -11 3 -14 6 -6 3 7 2 16 -1 19 -3 4 -6 -2 -5 -13z"/>
<path d="M3922 1395 c-2 -27 13 -51 22 -36 4 6 3 11 -3 11 -5 0 -12 10 -14 23 -4 19 -4 19 -5 2z"/>
<path d="M9795 1401 c-6 -11 9 -23 19 -14 9 9 7 23 -3 23 -6 0 -12 -4 -16 -9z"/>
<path d="M6766 1385 c4 -8 8 -15 10 -15 2 0 4 7 4 15 0 8 -4 15 -10 15 -5 0 -7 -7 -4 -15z"/>
<path d="M10191 1374 c0 -11 3 -14 6 -6 3 7 2 16 -1 19 -3 4 -6 -2 -5 -13z"/>
<path d="M4050 1340 c0 -7 3 -10 7 -7 3 4 3 10 0 14 -4 3 -7 0 -7 -7z"/>
<path d="M1163 1333 c4 -3 10 -3 14 0 3 4 0 7 -7 7 -7 0 -10 -3 -7 -7z"/>
<path d="M1045 1320 c3 -5 10 -10 16 -10 5 0 9 5 9 10 0 6 -7 10 -16 10 -8 0 -12 -4 -9 -10z"/>
<path d="M2618 1323 c7 -3 16 -2 19 1 4 3 -2 6 -13 5 -11 0 -14 -3 -6 -6z"/>
<path d="M7443 1303 c4 -3 10 -3 14 0 3 4 0 7 -7 7 -7 0 -10 -3 -7 -7z"/>
<path d="M5686 1292 c7 -4 14 -16 16 -27 3 -17 5 -15 10 8 4 23 2 27 -16 27 -13 0 -16 -3 -10 -8z"/>
<path d="M5660 1280 c0 -7 3 -10 7 -7 3 4 3 10 0 14 -4 3 -7 0 -7 -7z"/>
<path d="M9800 1280 c0 -5 5 -10 11 -10 5 0 7 5 4 10 -3 6 -8 10 -11 10 -2 0 -4 -4 -4 -10z"/>
<path d="M9306 1272 c-3 -6 -1 -14 5 -17 15 -10 25 3 12 16 -7 7 -13 7 -17 1z"/>
<path d="M9720 1258 c0 -4 4 -8 9 -8 6 0 12 4 15 8 3 5 -1 9 -9 9 -8 0 -15 -4 -15 -9z"/>
<path d="M525 1250 c3 -5 8 -10 11 -10 3 0 2 5 -1 10 -3 6 -8 10 -11 10 -3 0 -2 -4 1 -10z"/>
<path d="M5633 1245 c-3 -9 -3 -18 -1 -21 3 -3 8 4 11 16 6 23 -1 27 -10 5z"/>
<path d="M5673 1213 c9 -2 25 -2 35 0 9 3 1 5 -18 5 -19 0 -27 -2 -17 -5z"/>
<path d="M9355 1200 c-4 -6 5 -10 20 -10 15 0 24 4 20 10 -3 6 -12 10 -20 10 -8 0 -17 -4 -20 -10z"/>
<path d="M10033 1203 c4 -3 10 -3 14 0 3 4 0 7 -7 7 -7 0 -10 -3 -7 -7z"/>
<path d="M278 1148 c5 -5 16 -8 23 -6 8 3 3 7 -10 11 -17 4 -21 3 -13 -5z"/>
<path d="M7470 1136 c0 -9 5 -16 10 -16 6 0 10 4 10 9 0 6 -4 13 -10 16 -5 3 -10 -1 -10 -9z"/>
<path d="M6313 1113 c4 -3 10 -3 14 0 3 4 0 7 -7 7 -7 0 -10 -3 -7 -7z"/>
<path d="M915 1100 c3 -5 8 -10 11 -10 3 0 2 5 -1 10 -3 6 -8 10 -11 10 -3 0 -2 -4 1 -10z"/>
<path d="M5320 1099 c0 -5 5 -7 10 -4 6 3 10 8 10 11 0 2 -4 4 -10 4 -5 0 -10 -5 -10 -11z"/>
<path d="M901 1074 c0 -11 3 -14 6 -6 3 7 2 16 -1 19 -3 4 -6 -2 -5 -13z"/>
<path d="M424 1068 c-4 -7 -3 -8 4 -4 12 7 16 16 8 16 -3 0 -8 -5 -12 -12z"/>
<path d="M5243 1033 c4 -3 10 -3 14 0 3 4 0 7 -7 7 -7 0 -10 -3 -7 -7z"/>
<path d="M5428 1013 c7 -3 16 -2 19 1 4 3 -2 6 -13 5 -11 0 -14 -3 -6 -6z"/>
<path d="M6835 980 c3 -5 13 -10 21 -10 8 0 14 5 14 10 0 6 -9 10 -21 10 -11 0 -17 -4 -14 -10z"/>
<path d="M7410 964 c0 -14 4 -23 9 -20 5 3 7 15 4 26 -7 28 -13 25 -13 -6z"/>
<path d="M710 961 c0 -19 17 -38 25 -29 7 7 -7 48 -16 48 -5 0 -9 -9 -9 -19z"/>
<path d="M9093 973 c4 -3 10 -3 14 0 3 4 0 7 -7 7 -7 0 -10 -3 -7 -7z"/>
<path d="M4235 910 c-3 -5 -1 -10 4 -10 6 0 11 5 11 10 0 6 -2 10 -4 10 -3 0 -8 -4 -11 -10z"/>
<path d="M6848 913 c7 -3 16 -2 19 1 4 3 -2 6 -13 5 -11 0 -14 -3 -6 -6z"/>
<path d="M9068 873 c6 -2 18 -2 25 0 6 3 1 5 -13 5 -14 0 -19 -2 -12 -5z"/>
<path d="M9338 873 c7 -3 16 -2 19 1 4 3 -2 6 -13 5 -11 0 -14 -3 -6 -6z"/>
<path d="M6553 863 c4 -3 10 -3 14 0 3 4 0 7 -7 7 -7 0 -10 -3 -7 -7z"/>
<path d="M1440 840 c0 -5 5 -10 10 -10 6 0 10 5 10 10 0 6 -4 10 -10 10 -5 0 -10 -4 -10 -10z"/>
<path d="M3935 839 c-4 -6 -5 -12 -2 -15 2 -3 7 2 10 11 7 17 1 20 -8 4z"/>
<path d="M4977 837 c-3 -8 -2 -19 3 -26 5 -10 9 -8 14 4 3 9 6 21 6 26 0 14 -17 11 -23 -4z"/>
<path d="M5068 825 c-6 -29 7 -43 16 -19 9 23 7 44 -3 44 -5 0 -11 -11 -13 -25z"/>
<path d="M5540 840 c0 -5 4 -10 9 -10 6 0 13 5 16 10 3 6 -1 10 -9 10 -9 0 -16 -4 -16 -10z"/>
<path d="M1168 833 c7 -3 16 -2 19 1 4 3 -2 6 -13 5 -11 0 -14 -3 -6 -6z"/>
<path d="M1340 820 c0 -5 5 -10 10 -10 6 0 10 5 10 10 0 6 -4 10 -10 10 -5 0 -10 -4 -10 -10z"/>
<path d="M5730 815 c0 -8 7 -15 15 -15 8 0 15 7 15 15 0 8 -7 15 -15 15 -8 0 -15 -7 -15 -15z"/>
<path d="M6860 790 c0 -7 3 -10 7 -7 3 4 3 10 0 14 -4 3 -7 0 -7 -7z"/>
<path d="M1464 758 c-4 -7 -3 -8 4 -4 12 7 16 16 8 16 -3 0 -8 -5 -12 -12z"/>
<path d="M560 720 c0 -5 5 -10 10 -10 6 0 10 5 10 10 0 6 -4 10 -10 10 -5 0 -10 -4 -10 -10z"/>
<path d="M4443 703 c4 -3 10 -3 14 0 3 4 0 7 -7 7 -7 0 -10 -3 -7 -7z"/>
<path d="M6820 690 c0 -5 7 -7 15 -4 8 4 15 8 15 10 0 2 -7 4 -15 4 -8 0 -15 -4 -15 -10z"/>
<path d="M3493 683 c4 -3 10 -3 14 0 3 4 0 7 -7 7 -7 0 -10 -3 -7 -7z"/>
<path d="M6973 683 c4 -3 10 -3 14 0 3 4 0 7 -7 7 -7 0 -10 -3 -7 -7z"/>
<path d="M7433 683 c4 -3 10 -3 14 0 3 4 0 7 -7 7 -7 0 -10 -3 -7 -7z"/>
<path d="M2585 670 c-3 -6 1 -7 9 -4 18 7 21 14 7 14 -6 0 -13 -4 -16 -10z"/>
<path d="M10174 668 c-4 -7 -3 -8 4 -4 12 7 16 16 8 16 -3 0 -8 -5 -12 -12z"/>
<path d="M6921 654 c0 -11 3 -14 6 -6 3 7 2 16 -1 19 -3 4 -6 -2 -5 -13z"/>
<path d="M6103 633 c4 -3 10 -3 14 0 3 4 0 7 -7 7 -7 0 -10 -3 -7 -7z"/>
<path d="M8460 600 c0 -7 3 -10 7 -7 3 4 3 10 0 14 -4 3 -7 0 -7 -7z"/>
<path d="M7945 550 c-3 -5 -2 -10 4 -10 5 0 13 5 16 10 3 6 2 10 -4 10 -5 0 -13 -4 -16 -10z"/>
<path d="M8217 413 c-4 -3 -7 -11 -7 -17 0 -6 5 -5 12 2 6 6 9 14 7 17 -3 3 -9 2 -12 -2z"/>
<path d="M7424 365 c-18 -14 -18 -14 4 -8 12 3 22 9 22 14 0 12 -3 11 -26 -6z"/>
<path d="M3803 253 c4 -3 10 -3 14 0 3 4 0 7 -7 7 -7 0 -10 -3 -7 -7z"/>
<path d="M3830 235 c0 -8 5 -15 10 -15 6 0 10 7 10 15 0 8 -4 15 -10 15 -5 0 -10 -7 -10 -15z"/>
<path d="M7671 224 c0 -11 3 -14 6 -6 3 7 2 16 -1 19 -3 4 -6 -2 -5 -13z"/>
<path d="M1191 214 c0 -11 3 -14 6 -6 3 7 2 16 -1 19 -3 4 -6 -2 -5 -13z"/>
<path d="M1268 223 c7 -3 16 -2 19 1 4 3 -2 6 -13 5 -11 0 -14 -3 -6 -6z"/>
</g>
<g id="layer104" fill="#f8f9fa" stroke="none">
<path d="M9563 1543 c4 -3 10 -3 14 0 3 4 0 7 -7 7 -7 0 -10 -3 -7 -7z"/>
<path d="M6897 1453 c-4 -3 -7 -174 -7 -380 l0 -373 290 0 290 0 0 70 0 70 -215 0 -215 0 0 85 0 85 205 0 206 0 -3 68 -3 67 -200 2 -200 2 -3 85 -3 86 216 0 216 0 -3 68 -3 67 -281 3 c-154 1 -283 -1 -287 -5z"/>
<path d="M7578 1038 c-4 -450 -7 -483 -55 -606 -14 -34 -22 -66 -18 -70 6 -7 17 5 59 63 28 41 40 19 28 -56 -10 -62 -4 -88 16 -75 5 3 12 33 16 66 4 33 11 60 15 60 5 0 11 -33 15 -72 8 -102 7 -99 22 -87 8 7 14 40 16 87 l3 77 30 -60 c17 -33 38 -61 47 -63 15 -3 15 4 -7 69 -42 122 -31 168 34 135 38 -20 81 -21 81 -2 0 8 -12 18 -27 24 -16 5 -50 30 -78 56 l-50 48 -3 344 c-3 280 -1 344 10 344 7 0 96 2 198 3 l185 2 3 68 3 67 -270 0 -271 0 -2 -422z"/>
<path d="M8235 1448 c-3 -7 -6 -204 -8 -438 -2 -237 -9 -449 -14 -480 -12 -63 -32 -112 -44 -105 -4 3 -11 0 -15 -6 -5 -8 -3 -9 6 -4 10 6 12 4 6 -11 -12 -30 -12 -36 1 -41 6 -2 21 14 34 36 12 22 28 42 36 45 18 7 16 -3 -5 -22 -9 -10 -13 -14 -8 -9 22 16 26 4 20 -58 -5 -47 -3 -65 5 -65 15 0 31 43 31 83 0 18 4 38 9 45 10 16 21 -40 21 -105 0 -39 13 -63 28 -49 3 4 5 40 3 81 -1 43 2 75 7 75 5 0 20 -24 32 -52 28 -67 41 -83 51 -67 4 6 -4 44 -18 83 -16 47 -22 82 -18 104 6 35 17 39 55 17 29 -16 76 -19 85 -5 3 5 -11 18 -32 29 -21 11 -57 39 -81 63 l-42 44 2 343 3 343 193 -2 192 -1 0 71 0 70 -265 0 c-203 0 -267 -3 -270 -12z"/>
<path d="M8875 1447 c-3 -6 -4 -174 -3 -372 l3 -360 260 -3 c143 -1 270 0 283 3 20 5 22 11 22 70 l0 65 -211 2 -211 3 0 80 0 80 198 5 199 5 3 68 3 67 -201 0 -200 0 0 80 0 80 208 2 207 3 3 68 3 67 -281 0 c-216 0 -282 -3 -285 -13z"/>
<path d="M9550 1080 l0 -380 173 0 c94 0 201 5 237 10 133 22 211 104 218 230 2 38 -1 85 -8 105 -17 53 -73 111 -126 131 -24 9 -44 19 -44 21 0 2 48 58 108 124 59 66 109 124 110 129 2 6 -31 10 -81 10 l-85 0 -109 -125 -108 -125 -72 1 -73 2 0 123 0 124 -70 0 -70 0 0 -380z m413 -14 c18 -7 40 -23 50 -34 27 -29 33 -92 13 -130 -27 -53 -59 -62 -206 -62 l-130 0 0 113 c0 63 3 117 7 120 13 13 232 8 266 -7z"/>
<path d="M9968 993 c6 -2 18 -2 25 0 6 3 1 5 -13 5 -14 0 -19 -2 -12 -5z"/>
<path d="M9733 873 c4 -3 10 -3 14 0 3 4 0 7 -7 7 -7 0 -10 -3 -7 -7z"/>
<path d="M5661 1434 c-103 -28 -169 -96 -197 -206 -39 -150 28 -298 161 -354 53 -22 154 -29 213 -14 127 30 193 114 200 257 l5 83 -222 0 c-247 0 -247 0 -190 65 19 21 38 34 46 31 8 -3 11 -2 8 4 -8 14 60 23 117 17 28 -4 66 -16 86 -27 l35 -21 43 42 c24 23 41 46 38 51 -13 20 -88 59 -141 73 -70 18 -131 18 -202 -1z m239 -373 c0 -43 -106 -101 -158 -87 -10 2 -30 7 -45 10 -17 4 -25 11 -21 18 4 7 3 8 -5 4 -15 -10 -38 9 -57 46 l-15 28 151 0 c140 0 150 -1 150 -19z"/>
<path d="M5860 1052 c0 -7 -7 -12 -15 -12 -8 0 -15 -4 -15 -10 0 -5 7 -10 15 -10 17 0 32 27 21 37 -3 4 -6 1 -6 -5z"/>
<path d="M2391 1173 c-16 -17 -11 -25 8 -14 7 5 12 13 10 19 -2 6 -10 4 -18 -5z"/>
<path d="M2233 1153 c4 -3 10 -3 14 0 3 4 0 7 -7 7 -7 0 -10 -3 -7 -7z"/>
<path d="M3023 1155 c0 -8 4 -12 9 -9 5 3 6 10 3 15 -9 13 -12 11 -12 -6z"/>
<path d="M3163 1153 c4 -3 10 -3 14 0 3 4 0 7 -7 7 -7 0 -10 -3 -7 -7z"/>
<path d="M3788 1423 l-98 -4 0 -574 0 -575 110 0 110 0 0 320 c0 176 3 320 8 320 4 -1 52 -58 107 -128 l100 -127 123 -3 c67 -1 122 0 122 4 0 4 -61 83 -136 176 l-135 168 163 198 c90 108 168 203 172 210 6 9 -24 12 -136 12 l-143 0 -120 -151 -120 -150 -3 155 c-2 116 -6 155 -15 154 -6 -1 -56 -4 -109 -5z"/>
<path d="M640 1315 c0 -8 5 -15 10 -15 6 0 10 7 10 15 0 8 -4 15 -10 15 -5 0 -10 -7 -10 -15z"/>
<path d="M2808 1313 c7 -3 16 -2 19 1 4 3 -2 6 -13 5 -11 0 -14 -3 -6 -6z"/>
<path d="M9720 1260 c0 -7 3 -10 7 -7 3 4 3 10 0 14 -4 3 -7 0 -7 -7z"/>
<path d="M6118 1223 c7 -3 16 -2 19 1 4 3 -2 6 -13 5 -11 0 -14 -3 -6 -6z"/>
<path d="M9365 1200 c3 -5 10 -10 16 -10 5 0 9 5 9 10 0 6 -7 10 -16 10 -8 0 -12 -4 -9 -10z"/>
<path d="M565 1180 c3 -5 8 -10 11 -10 3 0 2 5 -1 10 -3 6 -8 10 -11 10 -3 0 -2 -4 1 -10z"/>
<path d="M10123 1173 c4 -3 10 -3 14 0 3 4 0 7 -7 7 -7 0 -10 -3 -7 -7z"/>
<path d="M6810 1120 c0 -7 3 -10 7 -7 3 4 3 10 0 14 -4 3 -7 0 -7 -7z"/>
<path d="M713 965 c-3 -9 -3 -18 -1 -21 3 -3 8 4 11 16 6 23 -1 27 -10 5z"/>
<path d="M6361 914 c0 -11 3 -14 6 -6 3 7 2 16 -1 19 -3 4 -6 -2 -5 -13z"/>
<path d="M193 913 c-18 -7 -16 -33 2 -33 8 0 15 9 15 20 0 11 -1 20 -2 19 -2 0 -9 -3 -15 -6z"/>
<path d="M6010 845 c-8 -9 -8 -15 -2 -15 12 0 26 19 19 26 -2 2 -10 -2 -17 -11z"/>
<path d="M7483 843 c4 -3 10 -3 14 0 3 4 0 7 -7 7 -7 0 -10 -3 -7 -7z"/>
<path d="M1388 823 c7 -3 16 -2 19 1 4 3 -2 6 -13 5 -11 0 -14 -3 -6 -6z"/>
<path d="M5065 800 c3 -5 8 -10 11 -10 2 0 4 5 4 10 0 6 -5 10 -11 10 -5 0 -7 -4 -4 -10z"/>
<path d="M5383 803 c4 -3 10 -3 14 0 3 4 0 7 -7 7 -7 0 -10 -3 -7 -7z"/>
<path d="M2818 728 c6 -6 18 -8 28 -6 14 3 12 5 -9 10 -19 3 -25 2 -19 -4z"/>
<path d="M6160 730 c0 -7 3 -10 7 -7 3 4 3 10 0 14 -4 3 -7 0 -7 -7z"/>
<path d="M10125 730 c-3 -5 -1 -10 4 -10 6 0 11 5 11 10 0 6 -2 10 -4 10 -3 0 -8 -4 -11 -10z"/>
<path d="M9525 660 c3 -5 8 -10 11 -10 3 0 2 5 -1 10 -3 6 -8 10 -11 10 -3 0 -2 -4 1 -10z"/>
<path d="M7843 583 c4 -3 10 -3 14 0 3 4 0 7 -7 7 -7 0 -10 -3 -7 -7z"/>
<path d="M7762 470 c0 -14 2 -19 5 -12 2 6 2 18 0 25 -3 6 -5 1 -5 -13z"/>
<path d="M8191 363 c-14 -30 -14 -43 -1 -43 6 0 10 11 10 25 0 23 10 30 35 25 6 -1 6 2 2 6 -16 16 -35 11 -46 -13z"/>
<path d="M7435 370 c-3 -5 -1 -10 4 -10 6 0 11 5 11 10 0 6 -2 10 -4 10 -3 0 -8 -4 -11 -10z"/>
<path d="M7741 281 c-1 -8 -8 -11 -21 -8 -27 7 -26 -10 1 -18 25 -8 32 -2 26 22 -3 10 -5 12 -6 4z"/>
</g> -->
<g id="layer105" fill="#31d16e" stroke="none">
<path d="M555 1529 l-320 -211 -3 -57 -3 -56 56 -28 c44 -21 60 -25 76 -17 11 6 146 94 300 196 154 101 282 184 286 184 3 0 146 -59 318 -131 l313 -132 10 -36 c19 -64 22 -125 9 -161 -7 -19 -19 -34 -26 -32 -7 1 -162 65 -345 142 -183 77 -337 140 -344 140 -12 0 -74 -39 -429 -273 l-223 -147 0 -55 0 -55 51 -26 c29 -14 59 -24 68 -21 9 2 146 89 305 193 160 104 295 188 300 186 53 -15 614 -257 622 -268 22 -28 37 -137 24 -182 -6 -23 -15 -42 -21 -42 -8 0 -230 94 -540 229 l-97 43 -363 -238 c-200 -130 -365 -238 -367 -239 -2 -2 162 -73 364 -159 l367 -156 321 166 c456 237 421 215 446 282 46 122 50 237 13 337 -18 47 -18 52 -1 101 28 82 33 171 14 255 -29 130 -4 113 -442 301 -214 92 -396 169 -404 172 -9 3 -147 -81 -335 -205z"/>
<path d="M6323 1440 c-28 -10 -65 -28 -82 -41 -33 -24 -81 -90 -81 -112 0 -16 113 -73 118 -58 9 27 46 61 90 82 60 30 179 33 229 6 86 -46 83 -144 -5 -179 -15 -5 -65 -16 -112 -24 -121 -20 -184 -42 -229 -80 -48 -42 -65 -87 -59 -164 9 -130 116 -203 298 -203 111 1 188 28 248 90 23 24 42 47 42 51 0 4 -25 20 -55 35 l-56 27 -37 -29 c-64 -49 -142 -64 -224 -41 -70 20 -101 96 -55 137 29 27 41 30 160 49 100 15 193 49 230 82 36 33 57 88 57 153 0 114 -59 190 -175 224 -75 21 -235 19 -302 -5z"/>
<path d="M7578 1038 c-4 -450 -7 -483 -55 -606 -14 -34 -22 -66 -18 -70 6 -7 17 5 59 63 28 41 40 19 28 -56 -10 -62 -4 -88 16 -75 5 3 12 33 16 66 9 75 26 79 26 6 0 -62 16 -114 30 -100 5 5 10 43 12 84 l3 75 27 -57 c46 -97 75 -92 40 7 -25 73 -29 133 -8 141 8 3 28 -2 45 -10 38 -20 81 -21 81 -2 0 8 -12 18 -27 24 -16 5 -50 30 -78 56 l-50 48 -3 344 c-3 280 -1 344 10 344 7 0 96 2 198 3 l185 2 3 68 3 67 -270 0 -271 0 -2 -422z"/>
<path d="M8235 1448 c-3 -7 -6 -204 -8 -438 -2 -235 -9 -450 -14 -481 -6 -30 -22 -78 -36 -106 -23 -45 -26 -63 -8 -63 4 0 17 18 31 40 43 69 53 62 45 -30 -5 -57 -4 -80 4 -80 15 0 31 43 31 83 0 18 4 38 9 45 10 16 21 -40 21 -105 0 -39 13 -63 28 -49 3 4 5 40 3 81 -1 42 2 75 7 75 5 0 21 -27 35 -60 25 -56 36 -68 49 -54 4 3 -5 38 -18 77 -17 48 -23 83 -19 105 6 35 17 39 55 17 29 -16 76 -19 85 -5 3 5 -11 18 -32 29 -21 11 -57 39 -81 63 l-42 44 2 343 3 343 193 -2 192 -1 0 71 0 70 -265 0 c-203 0 -267 -3 -270 -12z"/>
<path d="M2173 1412 c-154 -55 -253 -200 -253 -370 0 -161 74 -286 213 -360 48 -25 61 -27 162 -27 132 0 176 16 260 96 162 153 161 426 -1 579 -74 70 -129 92 -239 97 -70 3 -102 -1 -142 -15z m217 -194 c67 -37 106 -125 93 -213 -29 -197 -282 -234 -358 -53 -20 50 -19 134 4 183 21 47 70 92 109 101 15 3 32 7 37 9 21 5 81 -8 115 -27z"/>
<path d="M3021 1411 c-60 -23 -68 -28 -129 -85 -112 -105 -148 -286 -90 -444 26 -71 113 -163 186 -199 52 -25 67 -28 167 -28 101 0 114 2 162 27 148 79 222 215 210 390 -10 144 -93 270 -215 326 -78 36 -212 42 -291 13z m234 -195 c14 -9 37 -35 53 -58 24 -36 27 -51 27 -119 0 -70 -3 -81 -30 -120 -42 -60 -84 -82 -156 -82 -112 0 -183 79 -183 203 0 110 53 182 146 198 52 10 108 1 143 -22z"/>
<path d="M3690 845 l0 -575 110 0 110 0 0 320 c0 176 3 320 8 320 4 -1 52 -58 107 -128 l100 -127 123 -3 c67 -1 122 0 122 4 0 4 -61 83 -136 176 l-135 168 163 198 c90 108 168 203 172 210 6 9 -24 12 -136 12 l-143 0 -120 -151 -120 -150 -3 150 -3 151 -109 0 -110 0 0 -575z"/>
</g>
<g id="layer106" fill="#35b766" stroke="none">
    <path d="M7578 1038 c-4 -450 -7 -483 -55 -606 -14 -34 -22 -66 -18 -70 6 -7 17 5 59 63 28 41 40 19 28 -56 -10 -62 -4 -88 16 -75 5 3 12 33 16 66 9 75 26 79 26 6 0 -62 16 -114 30 -100 5 5 10 43 12 84 l3 75 27 -57 c46 -97 75 -92 40 7 -25 73 -29 133 -8 141 8 3 28 -2 45 -10 38 -20 81 -21 81 -2 0 8 -12 18 -27 24 -16 5 -50 30 -78 56 l-50 48 -3 344 c-2 189 0 344 5 344 179 6 267 10 271 15 3 3 -24 5 -59 5 -35 0 -71 5 -79 10 -10 7 -11 10 -2 10 9 0 10 11 6 40 l-7 40 121 0 c117 0 121 -1 125 -22 4 -21 4 -21 6 3 l1 26 -157 6 c-87 4 -206 7 -265 7 l-108 0 -2 -422z m252 347 c11 -13 8 -15 -13 -15 -26 0 -42 12 -30 24 11 11 30 7 43 -9z m-210 -670 c0 -8 -7 -15 -15 -15 -8 0 -15 7 -15 15 0 8 7 15 15 15 8 0 15 -7 15 -15z"/>
    <path d="M8235 1448 c-3 -7 -6 -204 -8 -438 -2 -235 -9 -450 -14 -481 -6 -30 -22 -78 -36 -106 -23 -45 -26 -63 -8 -63 4 0 17 18 31 40 43 69 53 62 45 -30 -5 -57 -4 -80 4 -80 15 0 31 43 31 83 0 18 4 38 9 45 10 16 21 -40 21 -105 0 -39 13 -63 28 -49 3 4 5 40 3 81 -1 42 2 75 7 75 5 0 21 -27 35 -60 25 -56 36 -68 49 -54 4 3 -5 38 -18 77 -17 48 -23 83 -19 105 6 35 17 39 55 17 29 -16 76 -19 85 -5 3 5 -11 18 -32 29 -21 11 -57 39 -81 63 l-42 44 2 343 3 343 170 5 c189 4 236 13 74 13 -109 0 -149 6 -149 22 0 5 4 7 9 3 14 -8 25 15 23 47 l-2 28 132 2 133 1 -130 8 c-225 12 -405 11 -410 -3z m237 -40 c-8 -8 -9 -4 -5 13 4 13 8 18 11 10 2 -7 -1 -18 -6 -23z m-196 -823 c-36 -19 -47 -19 -22 0 11 8 27 15 35 15 9 0 3 -7 -13 -15z"/>
</g>
<g id="layer107" fill="#32d26e" stroke="none">
<path d="M825 1700 c-3 -5 -1 -10 4 -10 6 0 11 5 11 10 0 6 -2 10 -4 10 -3 0 -8 -4 -11 -10z"/>
<path d="M516 1503 l-286 -188 0 -55 0 -56 55 -27 c44 -22 60 -25 76 -17 11 6 146 94 300 196 154 101 282 184 286 184 3 0 146 -59 318 -131 l313 -132 10 -36 c19 -64 22 -125 9 -161 -7 -19 -19 -34 -26 -32 -7 1 -162 65 -345 142 -183 77 -337 140 -344 140 -12 0 -74 -39 -429 -273 l-223 -147 0 -55 0 -55 51 -26 c29 -14 59 -24 68 -21 9 2 146 89 305 193 160 104 295 188 300 186 53 -15 614 -257 622 -268 22 -28 37 -137 24 -182 -6 -23 -15 -42 -21 -42 -8 0 -230 94 -540 229 l-97 43 -363 -238 c-200 -130 -365 -238 -367 -239 -2 -2 162 -73 364 -159 l367 -156 321 166 c456 237 421 215 446 282 46 122 50 237 13 337 -18 47 -18 52 -1 101 28 82 33 171 14 255 -28 128 -16 119 -341 257 -158 68 -296 125 -307 127 -10 2 -32 11 -49 19 -16 8 -29 10 -29 5 0 -5 11 -11 24 -15 14 -3 23 -11 20 -18 -3 -8 6 -11 31 -8 46 5 60 -22 24 -49 -21 -15 -25 -16 -29 -3 -3 9 -10 15 -15 15 -6 0 -18 2 -28 5 -10 3 -24 1 -31 -5 -14 -12 -76 -12 -76 0 0 3 -11 5 -25 4 -17 -2 -25 2 -25 11 0 12 -10 14 -54 9 -49 -6 -54 -5 -59 15 -4 14 -2 20 7 17 6 -3 17 6 23 19 6 13 10 24 8 24 -1 0 -131 -84 -289 -187z m692 68 c-4 -15 -22 -17 -56 -6 -10 4 -11 7 -1 18 18 18 61 9 57 -12z m-341 12 c-4 -3 -10 -3 -14 0 -3 4 0 7 7 7 7 0 10 -3 7 -7z"/>
<path d="M6897 1453 c-4 -3 -7 -174 -7 -380 l0 -373 290 0 291 0 -3 68 -3 67 -212 3 -213 2 0 85 0 85 205 0 206 0 -3 68 -3 67 -200 2 -200 2 -3 85 -3 86 216 0 216 0 -3 68 -3 67 -281 3 c-154 1 -283 -1 -287 -5z"/>
<path d="M7580 1099 c0 -352 0 -361 20 -366 11 -3 20 -10 20 -17 1 -18 55 -72 78 -78 l22 -6 0 344 c0 189 3 344 8 344 4 1 53 2 109 4 57 1 106 5 110 9 3 4 -11 7 -33 7 -21 0 -46 5 -54 10 -10 7 -11 10 -2 10 9 0 10 11 6 41 l-7 40 127 -3 c69 -2 126 0 126 3 0 7 -267 19 -422 19 l-108 0 0 -361z m250 286 c11 -13 8 -15 -13 -15 -26 0 -42 12 -30 24 11 11 30 7 43 -9z"/>
<path d="M8237 1453 c-11 -10 -8 -703 2 -703 5 0 8 -26 6 -57 -3 -45 -2 -49 3 -19 8 43 27 58 36 28 10 -31 74 -84 83 -69 4 6 10 165 13 351 l5 339 97 1 c53 1 100 5 104 9 4 4 -8 7 -27 7 -44 0 -79 10 -79 22 0 5 4 7 9 3 14 -8 25 15 23 47 l-2 28 132 2 133 1 -130 8 c-173 9 -400 11 -408 2z m235 -45 c-8 -8 -9 -4 -5 13 4 13 8 18 11 10 2 -7 -1 -18 -6 -23z"/>
<path d="M8875 1447 c-3 -6 -4 -174 -3 -372 l3 -360 260 -3 c143 -1 270 0 283 3 20 5 22 11 22 70 l0 65 -211 2 -211 3 0 80 0 80 198 5 199 5 0 65 0 65 -197 3 -198 2 0 80 0 80 208 2 207 3 3 68 3 67 -281 0 c-216 0 -282 -3 -285 -13z"/>
<path d="M9552 1083 l3 -378 165 -3 c274 -5 362 21 424 122 24 39 31 63 34 116 2 38 -1 85 -8 105 -17 53 -73 111 -126 131 -24 9 -44 19 -44 21 0 2 48 58 108 124 59 66 109 124 110 129 2 6 -31 10 -81 10 l-85 0 -109 -125 -108 -125 -72 0 -73 0 0 125 0 125 -70 0 -70 0 2 -377z m411 -17 c18 -7 40 -23 50 -34 27 -29 33 -92 13 -130 -27 -53 -59 -62 -206 -62 l-130 0 0 113 c0 63 3 117 7 120 13 13 232 8 266 -7z"/>
<path d="M5661 1434 c-103 -28 -169 -96 -197 -206 -39 -150 28 -298 161 -354 53 -22 154 -29 213 -14 127 30 193 114 200 257 l5 83 -222 0 c-247 0 -247 0 -191 64 17 19 47 40 67 47 49 16 145 6 190 -21 l36 -21 43 42 c24 23 41 46 38 51 -13 20 -88 59 -141 73 -70 18 -131 18 -202 -1z m239 -371 c-1 -48 -64 -86 -140 -86 -68 0 -115 23 -143 71 l-19 32 151 0 c137 0 151 -2 151 -17z"/>
<path d="M5043 1432 l-63 -3 0 -279 0 -280 65 0 c58 0 65 2 65 19 0 29 15 33 35 11 30 -34 98 -53 158 -46 55 7 117 37 117 57 0 19 -54 109 -65 109 -6 0 -17 -6 -23 -12 -20 -20 -122 -15 -156 7 -48 32 -56 67 -56 249 0 91 -3 166 -7 168 -5 2 -36 2 -70 0z"/>
<path d="M2173 1411 c-153 -52 -253 -199 -253 -369 0 -161 74 -286 213 -360 48 -25 61 -27 162 -27 132 0 176 16 260 96 64 61 100 130 115 222 30 190 -75 380 -241 436 -79 26 -184 27 -256 2z m287 -36 c0 -8 -9 -15 -20 -15 -11 0 -20 7 -20 15 0 8 9 15 20 15 11 0 20 -7 20 -15z m-70 -157 c67 -37 106 -125 93 -213 -29 -197 -282 -234 -358 -53 -20 50 -19 134 4 183 21 47 70 92 109 101 15 3 32 7 37 9 21 5 81 -8 115 -27z"/>
<path d="M2952 1375 c-44 -24 -104 -90 -132 -146 -54 -106 -61 -231 -18 -347 26 -71 113 -163 186 -199 52 -25 67 -28 167 -28 101 0 114 2 162 27 106 56 170 137 199 248 34 134 -2 295 -83 371 -31 30 -34 30 -17 7 10 -15 22 -28 27 -28 4 0 7 -8 7 -19 0 -26 -37 -33 -68 -13 -17 11 -23 12 -18 4 5 -9 -6 -7 -30 6 -61 30 -104 35 -120 15 -13 -17 -14 -17 -20 4 -5 17 -11 20 -32 15 -47 -12 -130 2 -138 23 -5 12 -42 12 -80 0 -12 -4 -25 -2 -28 3 -6 10 15 30 60 59 25 16 5 14 -24 -2z m293 -153 c16 -10 43 -37 60 -61 27 -39 30 -50 30 -121 0 -71 -3 -82 -30 -121 -42 -60 -84 -82 -156 -82 -112 0 -183 79 -183 203 0 104 46 172 134 199 44 13 106 5 145 -17z"/>
<path d="M6203 1353 c-27 -25 -50 -69 -41 -78 1 -1 28 -15 58 -30 42 -21 55 -24 59 -14 2 8 19 28 38 46 18 17 33 34 33 36 0 2 -23 -2 -51 -9 -28 -8 -61 -12 -73 -9 -11 2 -24 4 -28 4 -17 2 -6 31 19 50 14 12 24 24 21 26 -3 3 -19 -7 -35 -22z"/>
<path d="M3698 1270 c-4 -14 -8 -244 -8 -512 l0 -488 110 0 110 0 0 325 c0 210 4 325 10 325 6 0 10 -6 11 -12 0 -7 44 -67 98 -133 l97 -120 122 -3 c67 -1 122 0 122 4 0 4 -61 83 -136 176 l-135 168 64 78 c70 84 85 112 62 112 -9 0 -15 -9 -15 -21 0 -18 -4 -20 -25 -15 -14 4 -25 2 -25 -3 0 -10 -33 -8 -84 4 -16 5 -38 9 -50 10 -11 1 -24 3 -28 4 -14 2 -9 24 10 44 16 19 16 19 -3 7 -11 -6 -36 -33 -55 -58 l-35 -46 -6 70 c-4 49 -6 57 -7 27 -2 -38 -5 -43 -26 -43 -19 0 -23 4 -19 20 6 22 -22 29 -30 8 -4 -10 -7 -10 -15 0 -7 10 -11 10 -21 -2 -11 -14 -15 -14 -36 0 -19 12 -25 13 -32 2 -5 -8 -10 7 -13 42 -4 44 -6 50 -12 30z"/>
<path d="M6787 1260 c4 -14 0 -20 -11 -20 -9 0 -16 -7 -16 -15 0 -20 -29 -19 -36 0 -5 12 -9 13 -20 4 -16 -13 -16 -14 -31 21 -11 24 -12 23 -12 -15 -1 -22 -8 -50 -16 -62 -18 -25 -83 -48 -181 -62 -102 -15 -168 -39 -213 -78 -48 -41 -65 -87 -59 -163 9 -130 116 -203 298 -203 111 1 188 28 248 90 23 24 42 47 42 51 0 4 -25 20 -55 35 l-56 27 -37 -29 c-64 -49 -142 -64 -224 -41 -70 20 -101 96 -55 137 29 27 41 30 160 49 100 15 193 49 230 82 35 31 57 89 57 146 0 30 -4 57 -9 60 -5 4 -7 -3 -4 -14z"/>
<path d="M7580 620 c0 -7 3 -10 7 -7 3 4 3 10 0 14 -4 3 -7 0 -7 -7z"/>
<path d="M8369 623 c-1 -4 -1 -10 -1 -13 0 -3 -13 -7 -30 -8 -17 -1 -46 -10 -64 -18 -18 -9 -37 -13 -42 -10 -5 3 -7 -6 -4 -19 2 -15 0 -25 -7 -25 -6 0 -11 -8 -11 -17 0 -10 -13 -46 -29 -80 -27 -55 -29 -73 -12 -73 4 0 17 18 31 40 43 69 53 62 45 -30 -5 -57 -4 -80 4 -80 15 0 31 43 31 83 0 18 4 38 9 45 10 16 21 -40 21 -105 0 -39 13 -63 28 -49 3 4 5 40 3 81 -1 43 2 75 7 75 5 0 19 -22 30 -48 25 -58 52 -86 52 -55 0 11 -9 46 -20 79 -21 59 -20 124 1 124 5 0 23 -7 38 -15 20 -10 37 -11 57 -5 16 4 24 9 17 9 -7 1 -37 25 -69 54 -62 57 -83 72 -85 60z"/>
<path d="M7625 591 c-11 -5 -23 -7 -27 -4 -5 2 -8 -2 -8 -10 0 -8 -7 -20 -15 -27 -8 -6 -14 -15 -13 -18 1 -7 -6 -27 -43 -113 -12 -27 -18 -53 -15 -57 7 -7 18 5 60 63 28 41 40 19 28 -56 -10 -62 -4 -88 16 -75 5 3 12 33 16 66 9 75 26 79 26 6 0 -62 16 -114 30 -100 5 5 10 43 12 84 l3 75 27 -57 c47 -99 74 -92 39 10 -12 37 -21 83 -19 102 3 38 -3 37 98 25 l45 -5 -39 19 c-21 10 -49 32 -63 47 -13 16 -22 23 -18 17 3 -7 1 -13 -4 -13 -6 0 -11 4 -11 9 0 5 -8 7 -19 4 -10 -3 -22 0 -25 6 -8 13 -52 13 -81 2z m152 -48 c-4 -3 -10 -3 -14 0 -3 4 0 7 7 7 7 0 10 -3 7 -7z"/>
<path d="M8235 590 c3 -5 8 -10 11 -10 3 0 2 5 -1 10 -3 6 -8 10 -11 10 -3 0 -2 -4 1 -10z"/>
</g>
<g id="layer108" fill="#31d16e" stroke="none">
<path d="M654 1578 c-4 -7 -3 -8 4 -4 7 4 12 9 12 12 0 8 -9 4 -16 -8z"/>
<path d="M909 1533 c-13 -16 -12 -17 4 -4 9 7 17 15 17 17 0 8 -8 3 -21 -13z"/>
<path d="M529 1503 c-13 -16 -12 -17 4 -4 9 7 17 15 17 17 0 8 -8 3 -21 -13z"/>
<path d="M486 1475 c-11 -8 -17 -17 -14 -20 2 -3 13 4 23 15 21 23 18 25 -9 5z"/>
<path d="M816 1475 c-11 -8 -16 -15 -10 -15 5 0 18 7 28 15 11 8 16 15 10 15 -5 0 -18 -7 -28 -15z"/>
<path d="M1151 1465 c9 -8 79 -35 79 -30 0 2 -16 12 -36 20 -37 15 -51 19 -43 10z"/>
<path d="M425 1434 l-30 -26 33 22 c17 12 32 23 32 26 0 7 -4 5 -35 -22z"/>
<path d="M8887 1453 c-4 -3 -7 -170 -7 -370 l0 -363 43 2 42 1 -37 4 -38 4 0 353 c0 260 3 355 12 364 7 7 8 12 2 12 -6 0 -14 -3 -17 -7z"/>
<path d="M9410 1450 c0 -5 5 -10 11 -10 5 0 7 5 4 10 -3 6 -8 10 -11 10 -2 0 -4 -4 -4 -10z"/>
<path d="M759 1433 c-13 -16 -12 -17 4 -4 9 7 17 15 17 17 0 8 -8 3 -21 -13z"/>
<path d="M1545 1440 c3 -5 8 -10 11 -10 3 0 2 5 -1 10 -3 6 -8 10 -11 10 -3 0 -2 -4 1 -10z"/>
<path d="M6902 1073 l3 -378 2 373 3 372 271 0 271 0 -4 -60 c-1 -33 0 -60 5 -60 4 0 7 29 7 65 l0 65 -280 0 -280 0 2 -377z"/>
<path d="M7592 1098 l3 -353 2 348 3 348 255 -3 c140 -2 255 0 255 5 0 4 -117 7 -260 7 l-260 0 2 -352z"/>
<path d="M8242 1118 l3 -333 2 327 3 328 263 3 262 2 -267 3 -268 2 2 -332z"/>
<path d="M9560 1086 c0 -201 3 -367 8 -369 4 -3 6 159 4 359 l-2 364 50 0 50 0 0 -120 c0 -66 3 -120 8 -120 4 0 7 56 7 125 l0 125 -62 0 -63 0 0 -364z"/>
<path d="M10030 1425 c-13 -14 -18 -25 -12 -25 6 0 16 9 22 20 9 17 21 20 82 20 l72 0 -29 -30 c-16 -16 -25 -30 -19 -29 5 0 22 16 37 35 l29 34 -79 0 c-72 0 -82 -2 -103 -25z"/>
<path d="M5697 1433 c-3 -5 25 -8 61 -8 37 0 85 -3 107 -8 l40 -7 -35 14 c-37 15 -165 21 -173 9z"/>
<path d="M1243 1423 c4 -3 10 -3 14 0 3 4 0 7 -7 7 -7 0 -10 -3 -7 -7z"/>
<path d="M4991 1393 c1 -36 2 -37 8 -8 5 26 10 29 44 28 20 0 41 -1 46 -2 5 -1 11 -80 13 -177 l3 -175 42 -40 c23 -21 52 -39 65 -39 17 0 11 6 -22 23 -72 36 -80 62 -80 260 l0 167 -60 0 -60 0 1 -37z"/>
<path d="M5635 1420 c-13 -5 -14 -9 -5 -9 8 0 24 4 35 9 13 5 14 9 5 9 -8 0 -24 -4 -35 -9z"/>
<path d="M1603 1413 c4 -3 10 -3 14 0 3 4 0 7 -7 7 -7 0 -10 -3 -7 -7z"/>
<path d="M704 1398 c-4 -7 -3 -8 4 -4 12 7 16 16 8 16 -3 0 -8 -5 -12 -12z"/>
<path d="M1290 1406 c0 -2 9 -6 20 -9 11 -3 18 -1 14 4 -5 9 -34 13 -34 5z"/>
<path d="M5556 1369 c-53 -47 -72 -78 -81 -134 -5 -32 -2 -29 15 20 16 46 33 71 72 108 63 58 59 63 -6 6z"/>
<path d="M5917 1399 c7 -7 15 -10 18 -7 3 3 -2 9 -12 12 -14 6 -15 5 -6 -5z"/>
<path d="M1673 1377 c12 -13 24 -22 26 -20 6 4 -30 43 -40 43 -5 0 2 -10 14 -23z"/>
<path d="M674 1378 c-4 -7 -3 -8 4 -4 7 4 12 9 12 12 0 8 -9 4 -16 -8z"/>
<path d="M5962 1374 c16 -18 15 -21 -11 -50 -26 -29 -30 -30 -52 -18 -13 7 -31 13 -39 14 -8 0 3 -9 25 -20 l39 -20 38 37 c39 38 40 46 5 64 -21 11 -21 11 -5 -7z"/>
<path d="M9920 1298 l-82 -93 -71 -6 -72 -5 72 -2 c68 -2 73 -1 95 27 13 16 52 61 87 100 34 39 61 71 58 71 -3 0 -42 -42 -87 -92z"/>
<path d="M326 1371 c-4 -5 3 -7 14 -4 23 6 26 13 6 13 -8 0 -17 -4 -20 -9z"/>
<path d="M1377 1369 c7 -7 15 -10 18 -7 3 3 -2 9 -12 12 -14 6 -15 5 -6 -5z"/>
<path d="M644 1358 c-4 -7 -3 -8 4 -4 12 7 16 16 8 16 -3 0 -8 -5 -12 -12z"/>
<path d="M2050 1329 l-35 -30 38 26 c33 24 43 35 34 35 -1 0 -18 -14 -37 -31z"/>
<path d="M8757 1353 c-4 -3 -7 -11 -7 -17 0 -6 5 -5 12 2 6 6 9 14 7 17 -3 3 -9 2 -12 -2z"/>
<path d="M9411 1344 c0 -11 3 -14 6 -6 3 7 2 16 -1 19 -3 4 -6 -2 -5 -13z"/>
<path d="M8100 1340 c0 -7 3 -10 7 -7 3 4 3 10 0 14 -4 3 -7 0 -7 -7z"/>
<path d="M10051 1283 c-33 -37 -61 -70 -61 -75 0 -4 19 14 42 40 23 26 53 59 67 75 14 15 22 27 19 27 -3 0 -33 -30 -67 -67z"/>
<path d="M252 1319 c-19 -17 -22 -39 -6 -39 3 0 3 4 -1 9 -3 5 7 19 21 30 15 12 22 21 17 21 -5 0 -19 -9 -31 -21z"/>
<path d="M5768 1333 c7 -3 16 -2 19 1 4 3 -2 6 -13 5 -11 0 -14 -3 -6 -6z"/>
<path d="M9023 1333 c4 -3 10 -3 14 0 3 4 0 7 -7 7 -7 0 -10 -3 -7 -7z"/>
<path d="M9108 1333 c7 -3 16 -2 19 1 4 3 -2 6 -13 5 -11 0 -14 -3 -6 -6z"/>
<path d="M9323 1333 c4 -3 10 -3 14 0 3 4 0 7 -7 7 -7 0 -10 -3 -7 -7z"/>
<path d="M864 1318 c-4 -7 -3 -8 4 -4 12 7 16 16 8 16 -3 0 -8 -5 -12 -12z"/>
<path d="M5693 1323 c4 -3 10 -3 14 0 3 4 0 7 -7 7 -7 0 -10 -3 -7 -7z"/>
<path d="M5823 1323 c4 -3 10 -3 14 0 3 4 0 7 -7 7 -7 0 -10 -3 -7 -7z"/>
<path d="M560 1310 c-9 -6 -10 -10 -3 -10 6 0 15 5 18 10 8 12 4 12 -15 0z"/>
<path d="M893 1313 c4 -3 10 -3 14 0 3 4 0 7 -7 7 -7 0 -10 -3 -7 -7z"/>
<path d="M1710 1301 c0 -11 4 -22 9 -25 4 -3 6 6 3 19 -5 30 -12 33 -12 6z"/>
<path d="M5624 1284 c-19 -19 -34 -40 -34 -46 0 -6 9 1 20 15 12 15 32 35 47 47 14 11 20 20 13 20 -7 0 -28 -16 -46 -36z"/>
<path d="M8361 1304 c0 -11 3 -14 6 -6 3 7 2 16 -1 19 -3 4 -6 -2 -5 -13z"/>
<path d="M940 1295 c14 -8 30 -14 35 -14 6 0 -1 6 -15 14 -14 8 -29 14 -35 14 -5 0 1 -6 15 -14z"/>
<path d="M1533 1303 c4 -3 10 -3 14 0 3 4 0 7 -7 7 -7 0 -10 -3 -7 -7z"/>
<path d="M2565 1300 c3 -5 8 -10 11 -10 3 0 2 5 -1 10 -3 6 -8 10 -11 10 -3 0 -2 -4 1 -10z"/>
<path d="M6313 1303 c4 -3 10 -3 14 0 3 4 0 7 -7 7 -7 0 -10 -3 -7 -7z"/>
<path d="M7024 1225 c0 -49 1 -71 3 -48 2 23 2 64 0 90 -2 26 -3 8 -3 -42z"/>
<path d="M7714 1015 c0 -165 2 -234 3 -153 2 81 2 216 0 300 -1 84 -3 18 -3 -147z"/>
<path d="M9000 1300 c0 -7 3 -10 7 -7 3 4 3 10 0 14 -4 3 -7 0 -7 -7z"/>
<path d="M6166 1292 c-6 -10 44 -36 52 -27 3 3 0 5 -6 5 -6 0 -17 7 -26 15 -8 8 -17 11 -20 7z"/>
<path d="M804 1278 c-4 -7 -3 -8 4 -4 12 7 16 16 8 16 -3 0 -8 -5 -12 -12z"/>
<path d="M6293 1283 c4 -3 10 -3 14 0 3 4 0 7 -7 7 -7 0 -10 -3 -7 -7z"/>
<path d="M993 1273 c4 -3 10 -3 14 0 3 4 0 7 -7 7 -7 0 -10 -3 -7 -7z"/>
<path d="M1993 1268 c-15 -20 -25 -38 -20 -38 3 0 12 11 21 25 17 26 16 35 -1 13z"/>
<path d="M8364 1020 c0 -146 2 -205 3 -132 2 72 2 192 0 265 -1 72 -3 13 -3 -133z"/>
<path d="M8997 1253 c-3 -16 -1 -35 4 -43 6 -10 8 -2 9 28 0 48 -5 55 -13 15z"/>
<path d="M238 1244 c-3 -12 -2 -28 3 -35 12 -20 16 -8 9 26 -5 27 -6 28 -12 9z"/>
<path d="M737 1235 c-37 -33 -24 -32 15 0 16 14 26 25 21 25 -4 0 -21 -12 -36 -25z"/>
<path d="M1596 1235 c8 -37 14 -45 14 -19 0 10 -5 26 -10 34 -8 11 -9 7 -4 -15z"/>
<path d="M2278 1253 c12 -2 30 -2 40 0 9 3 -1 5 -23 4 -22 0 -30 -2 -17 -4z"/>
<path d="M2605 1250 c3 -5 8 -10 11 -10 3 0 2 5 -1 10 -3 6 -8 10 -11 10 -3 0 -2 -4 1 -10z"/>
<path d="M2228 1243 c7 -3 16 -2 19 1 4 3 -2 6 -13 5 -11 0 -14 -3 -6 -6z"/>
<path d="M3065 1240 c-3 -6 1 -7 9 -4 18 7 21 14 7 14 -6 0 -13 -4 -16 -10z"/>
<path d="M430 1219 c-22 -18 -22 -19 -3 -10 12 6 25 16 28 21 9 15 3 12 -25 -11z"/>
<path d="M2381 1237 c2 -2 18 -11 34 -21 l30 -17 -24 20 c-13 12 -28 21 -34 21 -6 0 -8 -1 -6 -3z"/>
<path d="M6253 1233 c4 -3 10 -3 14 0 3 4 0 7 -7 7 -7 0 -10 -3 -7 -7z"/>
<path d="M1732 1200 c0 -19 2 -27 5 -17 2 9 2 25 0 35 -3 9 -5 1 -5 -18z"/>
<path d="M2164 1208 l-19 -23 23 19 c21 18 27 26 19 26 -2 0 -12 -10 -23 -22z"/>
<path d="M3030 1220 c0 -7 3 -10 7 -7 3 4 3 10 0 14 -4 3 -7 0 -7 -7z"/>
<path d="M3265 1220 c3 -5 8 -10 11 -10 3 0 2 5 -1 10 -3 6 -8 10 -11 10 -3 0 -2 -4 1 -10z"/>
<path d="M6671 1214 c0 -11 3 -14 6 -6 3 7 2 16 -1 19 -3 4 -6 -2 -5 -13z"/>
<path d="M1960 1210 c0 -7 3 -10 7 -7 3 4 3 10 0 14 -4 3 -7 0 -7 -7z"/>
<path d="M684 1198 c-4 -7 -3 -8 4 -4 7 4 12 9 12 12 0 8 -9 4 -16 -8z"/>
<path d="M1167 1199 c7 -7 15 -10 18 -7 3 3 -2 9 -12 12 -14 6 -15 5 -6 -5z"/>
<path d="M2630 1200 c0 -7 3 -10 7 -7 3 4 3 10 0 14 -4 3 -7 0 -7 -7z"/>
<path d="M2445 1180 c3 -5 8 -10 11 -10 3 0 2 5 -1 10 -3 6 -8 10 -11 10 -3 0 -2 -4 1 -10z"/>
<path d="M5463 1126 c10 -103 50 -177 121 -220 22 -14 18 -8 -15 22 -57 51 -90 123 -92 203 -1 33 -6 59 -11 59 -5 0 -6 -29 -3 -64z"/>
<path d="M5807 1183 c237 -4 211 4 226 -68 3 -11 5 1 6 28 l1 47 -222 -2 -223 -3 212 -2z"/>
<path d="M6654 1178 c-4 -7 -3 -8 4 -4 12 7 16 16 8 16 -3 0 -8 -5 -12 -12z"/>
<path d="M354 1168 c-4 -7 -3 -8 4 -4 12 7 16 16 8 16 -3 0 -8 -5 -12 -12z"/>
<path d="M626 1165 c-11 -8 -15 -15 -9 -15 6 0 16 7 23 15 16 19 11 19 -14 0z"/>
<path d="M1940 1170 c0 -7 3 -10 7 -7 3 4 3 10 0 14 -4 3 -7 0 -7 -7z"/>
<path d="M2130 1170 c0 -7 3 -10 7 -7 3 4 3 10 0 14 -4 3 -7 0 -7 -7z"/>
<path d="M2641 1175 c1 -19 18 -51 18 -35 0 8 -4 22 -9 30 -5 8 -9 11 -9 5z"/>
<path d="M2800 1170 c0 -7 3 -10 7 -7 3 4 3 10 0 14 -4 3 -7 0 -7 -7z"/>
<path d="M3311 1163 c7 -12 15 -20 18 -17 3 2 -3 12 -13 22 -17 16 -18 16 -5 -5z"/>
<path d="M6780 1177 c0 -1 -4 -18 -10 -36 -5 -19 -6 -30 -1 -25 10 11 24 64 16 64 -3 0 -5 -1 -5 -3z"/>
<path d="M9000 1170 c0 -7 3 -10 7 -7 3 4 3 10 0 14 -4 3 -7 0 -7 -7z"/>
<path d="M1613 1135 c0 -22 2 -30 4 -17 2 12 2 30 0 40 -3 9 -5 -1 -4 -23z"/>
<path d="M10072 1141 c25 -16 49 -39 53 -50 3 -12 11 -21 16 -21 18 0 -30 58 -65 79 -18 12 -37 21 -42 21 -4 0 13 -13 38 -29z"/>
<path d="M1273 1153 c4 -3 10 -3 14 0 3 4 0 7 -7 7 -7 0 -10 -3 -7 -7z"/>
<path d="M1732 1135 c0 -16 2 -22 5 -12 2 9 2 23 0 30 -3 6 -5 -1 -5 -18z"/>
<path d="M2466 1147 c3 -10 9 -15 12 -12 3 3 0 11 -7 18 -10 9 -11 8 -5 -6z"/>
<path d="M2967 1141 c-4 -17 -3 -21 5 -13 5 5 8 16 6 23 -3 8 -7 3 -11 -10z"/>
<path d="M6619 1143 c-13 -17 -13 -17 6 -3 11 8 22 16 24 17 2 2 0 3 -6 3 -6 0 -17 -8 -24 -17z"/>
<path d="M1935 1130 c-4 -12 -5 -24 -2 -27 3 -2 8 5 12 17 4 12 5 24 2 27 -3 2 -8 -5 -12 -17z"/>
<path d="M2107 1130 c-3 -11 -3 -20 -1 -20 2 0 8 9 14 20 6 11 7 20 2 20 -6 0 -12 -9 -15 -20z"/>
<path d="M9400 1095 l0 -55 -192 -3 -193 -2 198 -3 197 -2 0 60 c0 33 -2 60 -5 60 -3 0 -5 -25 -5 -55z"/>
<path d="M543 1109 c-24 -17 -43 -33 -43 -36 0 -3 6 0 13 6 8 6 16 10 18 8 2 -2 17 10 34 25 38 36 31 35 -22 -3z"/>
<path d="M899 1123 c-13 -17 -13 -17 6 -3 11 8 22 16 24 17 2 2 0 3 -6 3 -6 0 -17 -8 -24 -17z"/>
<path d="M980 1130 c8 -5 20 -10 25 -10 6 0 3 5 -5 10 -8 5 -19 10 -25 10 -5 0 -3 -5 5 -10z"/>
<path d="M9323 1133 c4 -3 10 -3 14 0 3 4 0 7 -7 7 -7 0 -10 -3 -7 -7z"/>
<path d="M1360 1120 c0 -7 3 -10 7 -7 3 4 3 10 0 14 -4 3 -7 0 -7 -7z"/>
<path d="M3339 1098 c4 -28 6 -29 9 -9 2 13 0 27 -5 32 -6 6 -7 -3 -4 -23z"/>
<path d="M3513 1095 c0 -22 2 -30 4 -17 2 12 2 30 0 40 -3 9 -5 -1 -4 -23z"/>
<path d="M7438 1080 l4 -50 -204 -3 -203 -2 208 -3 207 -2 0 55 c0 30 -3 55 -7 55 -5 0 -6 -22 -5 -50z"/>
<path d="M1394 1106 c11 -9 24 -16 30 -16 12 0 7 5 -24 19 -24 11 -24 11 -6 -3z"/>
<path d="M2480 1110 c0 -7 3 -10 7 -7 3 4 3 10 0 14 -4 3 -7 0 -7 -7z"/>
<path d="M6558 1113 c7 -3 16 -2 19 1 4 3 -2 6 -13 5 -11 0 -14 -3 -6 -6z"/>
<path d="M2783 1035 c0 -44 2 -61 4 -37 2 23 2 59 0 80 -2 20 -4 1 -4 -43z"/>
<path d="M5605 1100 c-4 -6 47 -10 144 -10 94 0 151 4 151 10 0 6 -55 10 -144 10 -86 0 -147 -4 -151 -10z"/>
<path d="M6493 1103 c9 -2 23 -2 30 0 6 3 -1 5 -18 5 -16 0 -22 -2 -12 -5z"/>
<path d="M2663 1040 c0 -36 2 -50 4 -32 2 17 2 47 0 65 -2 17 -4 3 -4 -33z"/>
<path d="M2953 1040 c0 -36 2 -50 4 -32 2 17 2 47 0 65 -2 17 -4 3 -4 -33z"/>
<path d="M6423 1093 c9 -2 25 -2 35 0 9 3 1 5 -18 5 -19 0 -27 -2 -17 -5z"/>
<path d="M6744 1088 c-4 -7 -3 -8 4 -4 12 7 16 16 8 16 -3 0 -8 -5 -12 -12z"/>
<path d="M9713 1093 c9 -2 25 -2 35 0 9 3 1 5 -18 5 -19 0 -27 -2 -17 -5z"/>
<path d="M1100 1080 c8 -5 20 -10 25 -10 6 0 3 5 -5 10 -8 5 -19 10 -25 10 -5 0 -3 -5 5 -10z"/>
<path d="M1457 1079 c7 -7 15 -10 18 -7 3 3 -2 9 -12 12 -14 6 -15 5 -6 -5z"/>
<path d="M2091 1074 c0 -11 3 -14 6 -6 3 7 2 16 -1 19 -3 4 -6 -2 -5 -13z"/>
<path d="M6378 1083 c7 -3 16 -2 19 1 4 3 -2 6 -13 5 -11 0 -14 -3 -6 -6z"/>
<path d="M9953 1083 c4 -3 10 -3 14 0 3 4 0 7 -7 7 -7 0 -10 -3 -7 -7z"/>
<path d="M824 1068 c-4 -7 -3 -8 4 -4 12 7 16 16 8 16 -3 0 -8 -5 -12 -12z"/>
<path d="M1601 1067 c-1 -10 -11 -22 -23 -27 -16 -6 -18 -9 -7 -9 21 -1 43 24 36 41 -3 8 -6 6 -6 -5z"/>
<path d="M5911 1064 c0 -11 3 -14 6 -6 3 7 2 16 -1 19 -3 4 -6 -2 -5 -13z"/>
<path d="M6011 1044 c-16 -58 -56 -110 -107 -140 -38 -22 -65 -29 -138 -34 l-91 -7 76 -1 c115 -3 174 22 231 98 26 36 54 107 45 117 -3 3 -10 -12 -16 -33z"/>
<path d="M6343 1073 c4 -3 10 -3 14 0 3 4 0 7 -7 7 -7 0 -10 -3 -7 -7z"/>
<path d="M9674 960 c0 -69 1 -97 3 -62 2 34 2 90 0 125 -2 34 -3 6 -3 -63z"/>
<path d="M2493 1035 c0 -22 2 -30 4 -17 2 12 2 30 0 40 -3 9 -5 -1 -4 -23z"/>
<path d="M5590 1061 c0 -6 4 -13 10 -16 6 -3 7 1 4 9 -7 18 -14 21 -14 7z"/>
<path d="M6685 1049 c-16 -10 -25 -19 -19 -19 7 0 22 9 35 20 30 24 23 24 -16 -1z"/>
<path d="M794 1048 c-4 -7 -3 -8 4 -4 12 7 16 16 8 16 -3 0 -8 -5 -12 -12z"/>
<path d="M1720 1050 c0 -7 3 -10 7 -7 3 4 3 10 0 14 -4 3 -7 0 -7 -7z"/>
<path d="M1922 1040 c0 -14 2 -19 5 -12 2 6 2 18 0 25 -3 6 -5 1 -5 -13z"/>
<path d="M4112 1037 c-28 -30 -28 -42 3 -79 14 -16 25 -25 25 -20 0 5 -9 17 -20 27 -26 23 -25 43 2 72 12 13 19 23 16 23 -2 0 -14 -10 -26 -23z"/>
<path d="M6260 1030 c-19 -17 -26 -27 -15 -21 19 9 63 51 54 51 -3 0 -20 -14 -39 -30z"/>
<path d="M10017 1040 c10 -11 19 -20 21 -20 1 0 -2 9 -8 20 -6 11 -15 20 -20 20 -6 0 -2 -9 7 -20z"/>
<path d="M10157 985 c6 -104 11 -119 12 -30 0 39 -4 79 -8 90 -5 11 -6 -16 -4 -60z"/>
<path d="M1183 1043 c4 -3 10 -3 14 0 3 4 0 7 -7 7 -7 0 -10 -3 -7 -7z"/>
<path d="M2090 1020 c0 -16 4 -30 8 -30 5 0 7 14 4 30 -2 17 -6 30 -8 30 -2 0 -4 -13 -4 -30z"/>
<path d="M5895 1029 c-4 -6 -5 -12 -2 -15 2 -3 7 2 10 11 7 17 1 20 -8 4z"/>
<path d="M390 1010 c-14 -11 -20 -20 -14 -20 6 0 19 9 29 20 23 25 17 25 -15 0z"/>
<path d="M744 1018 c-4 -7 -3 -8 4 -4 12 7 16 16 8 16 -3 0 -8 -5 -12 -12z"/>
<path d="M1706 1013 c-6 -14 -5 -15 5 -6 7 7 10 15 7 18 -3 3 -9 -2 -12 -12z"/>
<path d="M5644 998 c17 -16 37 -28 46 -28 8 1 2 8 -15 17 -16 8 -37 21 -46 27 -8 6 -2 -1 15 -16z"/>
<path d="M6605 1020 c-13 -5 -14 -9 -5 -9 8 0 24 4 35 9 13 5 14 9 5 9 -8 0 -24 -4 -35 -9z"/>
<path d="M1250 1016 c0 -2 7 -7 16 -10 8 -3 12 -2 9 4 -6 10 -25 14 -25 6z"/>
<path d="M3513 985 c0 -22 2 -30 4 -17 2 12 2 30 0 40 -3 9 -5 -1 -4 -23z"/>
<path d="M7024 930 c0 -52 1 -74 3 -47 2 26 2 68 0 95 -2 26 -3 4 -3 -48z"/>
<path d="M714 998 c-4 -7 -3 -8 4 -4 12 7 16 16 8 16 -3 0 -8 -5 -12 -12z"/>
<path d="M1297 999 c7 -7 15 -10 18 -7 3 3 -2 9 -12 12 -14 6 -15 5 -6 -5z"/>
<path d="M3339 982 c-3 -20 -2 -29 4 -23 5 5 7 19 5 32 -3 20 -5 19 -9 -9z"/>
<path d="M5337 1003 c-4 -3 -28 -12 -54 -19 -27 -7 -38 -13 -25 -13 12 -1 39 6 59 14 41 17 40 18 64 -34 16 -36 16 -40 0 -56 -15 -16 -15 -17 7 -6 27 14 27 11 1 72 -20 45 -36 59 -52 42z"/>
<path d="M6533 1003 c9 -2 23 -2 30 0 6 3 -1 5 -18 5 -16 0 -22 -2 -12 -5z"/>
<path d="M8995 1000 c3 -5 8 -10 11 -10 2 0 4 5 4 10 0 6 -5 10 -11 10 -5 0 -7 -4 -4 -10z"/>
<path d="M5840 984 c-16 -8 -19 -14 -9 -14 8 0 24 7 35 15 24 18 7 18 -26 -1z"/>
<path d="M6478 993 c7 -3 16 -2 19 1 4 3 -2 6 -13 5 -11 0 -14 -3 -6 -6z"/>
<path d="M350 980 c0 -7 3 -10 7 -7 3 4 3 10 0 14 -4 3 -7 0 -7 -7z"/>
<path d="M684 978 c-4 -7 -3 -8 4 -4 7 4 12 9 12 12 0 8 -9 4 -16 -8z"/>
<path d="M1330 986 c0 -2 7 -7 16 -10 8 -3 12 -2 9 4 -6 10 -25 14 -25 6z"/>
<path d="M1931 980 c0 -8 4 -24 9 -35 5 -13 9 -14 9 -5 0 8 -4 24 -9 35 -5 13 -9 14 -9 5z"/>
<path d="M6214 978 c-4 -7 -3 -8 4 -4 12 7 16 16 8 16 -3 0 -8 -5 -12 -12z"/>
<path d="M6400 980 c-8 -5 -10 -10 -5 -10 6 0 17 5 25 10 8 5 11 10 5 10 -5 0 -17 -5 -25 -10z"/>
<path d="M2100 968 c0 -9 5 -20 10 -23 13 -8 13 5 0 25 -8 13 -10 13 -10 -2z"/>
<path d="M2464 934 c-11 -24 -17 -41 -12 -38 12 7 40 64 36 73 -2 4 -12 -12 -24 -35z"/>
<path d="M9000 923 c-3 -34 -1 -58 3 -54 5 4 7 32 5 62 l-3 54 -5 -62z"/>
<path d="M654 958 c-4 -7 -3 -8 4 -4 12 7 16 16 8 16 -3 0 -8 -5 -12 -12z"/>
<path d="M1691 960 c0 -8 4 -22 9 -30 12 -18 12 -2 0 25 -6 13 -9 15 -9 5z"/>
<path d="M5733 963 c9 -2 25 -2 35 0 9 3 1 5 -18 5 -19 0 -27 -2 -17 -5z"/>
<path d="M6349 957 c-19 -14 -39 -51 -39 -69 1 -7 7 1 14 18 8 17 24 39 37 48 13 9 19 16 14 16 -6 0 -17 -6 -26 -13z"/>
<path d="M289 939 c-23 -19 -23 -20 -2 -10 12 6 25 16 28 21 10 16 -1 12 -26 -11z"/>
<path d="M2965 950 c3 -5 8 -10 11 -10 3 0 2 5 -1 10 -3 6 -8 10 -11 10 -3 0 -2 -4 1 -10z"/>
<path d="M6195 918 c-3 -24 -2 -56 3 -72 6 -22 8 -12 8 43 0 39 -1 71 -2 71 -2 0 -5 -19 -9 -42z"/>
<path d="M620 939 c0 -5 5 -7 10 -4 6 3 10 8 10 11 0 2 -4 4 -10 4 -5 0 -10 -5 -10 -11z"/>
<path d="M1420 945 c0 -7 30 -13 34 -7 3 4 -4 9 -15 9 -10 1 -19 0 -19 -2z"/>
<path d="M2651 934 c0 -11 3 -14 6 -6 3 7 2 16 -1 19 -3 4 -6 -2 -5 -13z"/>
<path d="M2790 935 c0 -5 5 -17 10 -25 5 -8 10 -10 10 -5 0 6 -5 17 -10 25 -5 8 -10 11 -10 5z"/>
<path d="M3316 923 c-6 -14 -5 -15 5 -6 7 7 10 15 7 18 -3 3 -9 -2 -12 -12z"/>
<path d="M580 915 c-14 -8 -20 -14 -14 -15 5 0 19 7 30 15 24 18 16 19 -16 0z"/>
<path d="M1463 923 c4 -3 10 -3 14 0 3 4 0 7 -7 7 -7 0 -10 -3 -7 -7z"/>
<path d="M2128 914 c12 -22 70 -80 74 -73 2 2 -17 24 -41 48 -24 25 -39 36 -33 25z"/>
<path d="M2970 926 c0 -2 8 -10 18 -17 15 -13 16 -12 3 4 -13 16 -21 21 -21 13z"/>
<path d="M5142 920 c10 -32 58 -54 121 -56 34 -1 46 0 27 2 -79 9 -101 16 -126 41 -15 15 -25 21 -22 13z"/>
<path d="M10032 898 c-10 -30 -10 -31 3 -14 13 17 21 46 12 46 -1 0 -8 -15 -15 -32z"/>
<path d="M1940 910 c0 -7 3 -10 7 -7 3 4 3 10 0 14 -4 3 -7 0 -7 -7z"/>
<path d="M3497 913 c-4 -3 -7 -13 -7 -22 1 -13 3 -13 11 2 11 19 8 33 -4 20z"/>
<path d="M3900 910 c0 -7 3 -10 7 -7 3 4 3 10 0 14 -4 3 -7 0 -7 -7z"/>
<path d="M3935 910 c3 -5 8 -10 11 -10 3 0 2 5 -1 10 -3 6 -8 10 -11 10 -3 0 -2 -4 1 -10z"/>
<path d="M5090 899 c0 -19 -5 -21 -50 -17 -28 1 -50 0 -50 -4 0 -5 24 -8 54 -8 49 0 54 2 58 25 3 14 1 25 -3 25 -5 0 -9 -9 -9 -21z"/>
<path d="M1710 900 c0 -7 3 -10 7 -7 3 4 3 10 0 14 -4 3 -7 0 -7 -7z"/>
<path d="M233 893 c4 -3 10 -3 14 0 3 4 0 7 -7 7 -7 0 -10 -3 -7 -7z"/>
<path d="M926 891 c-4 -5 3 -7 14 -4 23 6 26 13 6 13 -8 0 -17 -4 -20 -9z"/>
<path d="M3279 873 l-24 -28 28 24 c15 14 27 26 27 28 0 8 -8 1 -31 -24z"/>
<path d="M4160 896 c0 -2 8 -10 18 -17 15 -13 16 -12 3 4 -13 16 -21 21 -21 13z"/>
<path d="M973 883 c4 -3 10 -3 14 0 3 4 0 7 -7 7 -7 0 -10 -3 -7 -7z"/>
<path d="M1955 880 c3 -5 8 -10 11 -10 3 0 2 5 -1 10 -3 6 -8 10 -11 10 -3 0 -2 -4 1 -10z"/>
<path d="M2630 880 c0 -7 3 -10 7 -7 3 4 3 10 0 14 -4 3 -7 0 -7 -7z"/>
<path d="M5630 880 c8 -5 22 -9 30 -9 10 0 8 3 -5 9 -27 12 -43 12 -25 0z"/>
<path d="M515 870 c-3 -6 1 -7 9 -4 18 7 21 14 7 14 -6 0 -13 -4 -16 -10z"/>
<path d="M894 868 c-4 -7 -3 -8 4 -4 7 4 12 9 12 12 0 8 -9 4 -16 -8z"/>
<path d="M1720 870 c0 -7 3 -10 7 -7 3 4 3 10 0 14 -4 3 -7 0 -7 -7z"/>
<path d="M2416 865 c-11 -8 -15 -15 -9 -15 6 0 16 7 23 15 16 19 11 19 -14 0z"/>
<path d="M3022 864 c10 -10 20 -16 22 -13 3 3 -5 11 -17 18 -21 13 -21 12 -5 -5z"/>
<path d="M10140 850 c-15 -36 -83 -100 -108 -101 -10 0 -12 -3 -5 -6 22 -8 82 37 109 83 15 25 24 47 22 50 -3 2 -11 -9 -18 -26z"/>
<path d="M2820 860 c0 -7 3 -10 7 -7 3 4 3 10 0 14 -4 3 -7 0 -7 -7z"/>
<path d="M3465 844 c-9 -14 -14 -28 -12 -31 3 -3 13 9 22 26 19 38 14 41 -10 5z"/>
<path d="M463 840 c-34 -20 -47 -38 -15 -21 23 13 58 40 52 41 -3 0 -20 -9 -37 -20z"/>
<path d="M1043 853 c4 -3 10 -3 14 0 3 4 0 7 -7 7 -7 0 -10 -3 -7 -7z"/>
<path d="M2610 840 c-6 -11 -8 -20 -6 -20 3 0 10 9 16 20 6 11 8 20 6 20 -3 0 -10 -9 -16 -20z"/>
<path d="M3897 840 c3 -11 7 -20 9 -20 2 0 4 9 4 20 0 11 -4 20 -9 20 -5 0 -7 -9 -4 -20z"/>
<path d="M4195 850 c3 -5 8 -10 11 -10 3 0 2 5 -1 10 -3 6 -8 10 -11 10 -3 0 -2 -4 1 -10z"/>
<path d="M6320 853 c0 -14 57 -63 73 -63 7 0 -2 9 -20 19 -17 11 -36 28 -42 38 -6 10 -11 13 -11 6z"/>
<path d="M6644 838 l-19 -23 25 20 c14 11 27 21 29 22 2 2 0 3 -6 3 -5 0 -18 -10 -29 -22z"/>
<path d="M241 830 c-1 -16 7 -30 22 -39 21 -13 21 -13 6 5 -10 10 -19 28 -22 39 -4 16 -5 16 -6 -5z"/>
<path d="M1976 837 c3 -10 9 -15 12 -12 3 3 0 11 -7 18 -10 9 -11 8 -5 -6z"/>
<path d="M2365 840 c-16 -7 -17 -9 -3 -9 9 -1 20 4 23 9 7 11 7 11 -20 0z"/>
<path d="M3225 840 c-16 -7 -17 -9 -3 -9 9 -1 20 4 23 9 7 11 7 11 -20 0z"/>
<path d="M4000 825 c13 -14 26 -25 28 -25 3 0 -5 11 -18 25 -13 14 -26 25 -28 25 -3 0 5 -11 18 -25z"/>
<path d="M9965 840 c-16 -7 -17 -9 -3 -9 9 -1 20 4 23 9 7 11 7 11 -20 0z"/>
<path d="M826 825 c-11 -8 -15 -15 -9 -15 6 0 16 7 23 15 16 19 11 19 -14 0z"/>
<path d="M1733 800 c0 -25 2 -35 4 -22 2 12 2 32 0 45 -2 12 -4 2 -4 -23z"/>
<path d="M2833 833 c4 -3 10 -3 14 0 3 4 0 7 -7 7 -7 0 -10 -3 -7 -7z"/>
<path d="M3083 833 c4 -3 10 -3 14 0 3 4 0 7 -7 7 -7 0 -10 -3 -7 -7z"/>
<path d="M9123 833 c59 -2 154 -2 210 0 56 1 8 3 -108 3 -115 0 -161 -2 -102 -3z"/>
<path d="M1602 810 c0 -14 2 -19 5 -12 2 6 2 18 0 25 -3 6 -5 1 -5 -13z"/>
<path d="M2268 823 c7 -3 16 -2 19 1 4 3 -2 6 -13 5 -11 0 -14 -3 -6 -6z"/>
<path d="M2313 823 c4 -3 10 -3 14 0 3 4 0 7 -7 7 -7 0 -10 -3 -7 -7z"/>
<path d="M3128 823 c12 -2 32 -2 45 0 12 2 2 4 -23 4 -25 0 -35 -2 -22 -4z"/>
<path d="M6743 819 c17 -10 16 -13 -9 -47 -23 -31 -24 -34 -5 -17 34 30 46 56 30 66 -8 5 -18 9 -24 9 -5 -1 -2 -5 8 -11z"/>
<path d="M7237 823 l212 -3 4 -63 3 -62 2 68 2 67 -217 -2 -218 -3 212 -2z"/>
<path d="M9758 823 c34 -2 90 -2 125 0 34 2 6 3 -63 3 -69 0 -97 -1 -62 -3z"/>
<path d="M404 798 c-4 -7 -3 -8 4 -4 12 7 16 16 8 16 -3 0 -8 -5 -12 -12z"/>
<path d="M770 790 c-14 -11 -20 -20 -14 -20 6 0 19 9 29 20 23 25 17 25 -15 0z"/>
<path d="M1167 799 c7 -7 15 -10 18 -7 3 3 -2 9 -12 12 -14 6 -15 5 -6 -5z"/>
<path d="M2000 800 c0 -7 3 -10 7 -7 3 4 3 10 0 14 -4 3 -7 0 -7 -7z"/>
<path d="M2570 785 c-13 -14 -22 -27 -19 -29 2 -2 14 10 27 25 29 36 24 38 -8 4z"/>
<path d="M2865 790 c10 -11 20 -20 23 -20 3 0 -3 9 -13 20 -10 11 -20 20 -23 20 -3 0 3 -9 13 -20z"/>
<path d="M6575 800 c-16 -7 -17 -9 -3 -9 9 -1 20 4 23 9 7 11 7 11 -20 0z"/>
<path d="M3426 784 c-5 -14 -4 -15 9 -4 17 14 19 20 6 20 -5 0 -12 -7 -15 -16z"/>
<path d="M369 773 c-13 -16 -12 -17 4 -4 9 7 17 15 17 17 0 8 -8 3 -21 -13z"/>
<path d="M4280 750 c17 -22 34 -40 37 -40 2 0 -10 18 -27 40 -17 22 -34 40 -37 40 -2 0 10 -18 27 -40z"/>
<path d="M6220 786 c0 -2 8 -10 18 -17 15 -13 16 -12 3 4 -13 16 -21 21 -21 13z"/>
<path d="M300 770 c8 -5 24 -10 34 -10 26 0 18 6 -19 14 -22 5 -26 4 -15 -4z"/>
<path d="M2040 755 c13 -14 26 -25 28 -25 3 0 -5 11 -18 25 -13 14 -26 25 -28 25 -3 0 5 -11 18 -25z"/>
<path d="M6448 773 c18 -2 45 -2 60 0 15 2 0 4 -33 4 -33 0 -45 -2 -27 -4z"/>
<path d="M709 749 l-24 -20 28 17 c15 9 27 18 27 20 0 8 -8 4 -31 -17z"/>
<path d="M1258 758 c5 -5 16 -8 23 -6 8 3 3 7 -10 11 -17 4 -21 3 -13 -5z"/>
<path d="M1611 754 c0 -11 3 -14 6 -6 3 7 2 16 -1 19 -3 4 -6 -2 -5 -13z"/>
<path d="M4055 750 c10 -11 20 -20 23 -20 3 0 -3 9 -13 20 -10 11 -20 20 -23 20 -3 0 3 -9 13 -20z"/>
<path d="M2897 749 c7 -7 15 -10 18 -7 3 3 -2 9 -12 12 -14 6 -15 5 -6 -5z"/>
<path d="M3389 743 c-13 -16 -12 -17 4 -4 9 7 17 15 17 17 0 8 -8 3 -21 -13z"/>
<path d="M1732 730 c0 -14 2 -19 5 -12 2 6 2 18 0 25 -3 6 -5 1 -5 -13z"/>
<path d="M6284 726 c32 -27 104 -51 132 -43 15 4 13 5 -6 6 -32 2 -88 21 -125 44 l-30 18 29 -25z"/>
<path d="M6679 723 c-13 -16 -12 -17 4 -4 16 13 21 21 13 21 -2 0 -10 -8 -17 -17z"/>
<path d="M9410 730 c0 -7 3 -10 7 -7 3 4 3 10 0 14 -4 3 -7 0 -7 -7z"/>
<path d="M664 718 c-4 -7 -3 -8 4 -4 12 7 16 16 8 16 -3 0 -8 -5 -12 -12z"/>
<path d="M2080 726 c0 -2 8 -10 18 -17 15 -13 16 -12 3 4 -13 16 -21 21 -21 13z"/>
<path d="M2930 726 c0 -2 8 -10 18 -17 15 -13 16 -12 3 4 -13 16 -21 21 -21 13z"/>
<path d="M3354 718 c-4 -7 -3 -8 4 -4 12 7 16 16 8 16 -3 0 -8 -5 -12 -12z"/>
<path d="M9963 723 c4 -3 10 -3 14 0 3 4 0 7 -7 7 -7 0 -10 -3 -7 -7z"/>
<path d="M4095 700 c10 -11 20 -20 23 -20 3 0 -3 9 -13 20 -10 11 -20 20 -23 20 -3 0 3 -9 13 -20z"/>
<path d="M1385 700 c3 -5 8 -10 11 -10 3 0 2 5 -1 10 -3 6 -8 10 -11 10 -3 0 -2 -4 1 -10z"/>
<path d="M2460 695 c-14 -8 -20 -14 -14 -15 5 0 19 7 30 15 24 18 16 19 -16 0z"/>
<path d="M3323 703 c4 -3 10 -3 14 0 3 4 0 7 -7 7 -7 0 -10 -3 -7 -7z"/>
<path d="M6628 705 c-3 -3 -25 -10 -49 -15 l-44 -9 48 4 c49 5 100 24 66 25 -9 0 -18 -2 -21 -5z"/>
<path d="M2987 690 c13 -13 56 -23 49 -12 -3 5 -17 12 -32 15 -14 2 -22 1 -17 -3z"/>
<path d="M589 673 c-13 -17 -13 -17 6 -3 11 8 22 16 24 17 2 2 0 3 -6 3 -6 0 -17 -8 -24 -17z"/>
<path d="M1730 680 c0 -7 3 -10 7 -7 3 4 3 10 0 14 -4 3 -7 0 -7 -7z"/>
<path d="M2160 680 c0 -5 5 -10 11 -10 5 0 7 5 4 10 -3 6 -8 10 -11 10 -2 0 -4 -4 -4 -10z"/>
<path d="M3293 683 c4 -3 10 -3 14 0 3 4 0 7 -7 7 -7 0 -10 -3 -7 -7z"/>
<path d="M7712 665 c0 -16 2 -22 5 -12 2 9 2 23 0 30 -3 6 -5 -1 -5 -18z"/>
<path d="M1453 673 c4 -3 10 -3 14 0 3 4 0 7 -7 7 -7 0 -10 -3 -7 -7z"/>
<path d="M4133 668 c-2 -5 49 -8 113 -8 65 0 115 3 112 6 -9 8 -219 10 -225 2z"/>
<path d="M6463 673 c15 -2 37 -2 50 0 12 2 0 4 -28 4 -27 0 -38 -2 -22 -4z"/>
<path d="M2191 666 c10 -9 79 -14 74 -5 -4 5 -22 9 -42 9 -20 0 -34 -2 -32 -4z"/>
<path d="M2335 660 c-4 -6 6 -7 27 -3 44 8 48 13 10 13 -17 0 -34 -4 -37 -10z"/>
<path d="M3058 663 c6 -2 18 -2 25 0 6 3 1 5 -13 5 -14 0 -19 -2 -12 -5z"/>
<path d="M3205 660 c-3 -6 1 -7 9 -4 18 7 21 14 7 14 -6 0 -13 -4 -16 -10z"/>
<path d="M3243 663 c4 -3 10 -3 14 0 3 4 0 7 -7 7 -7 0 -10 -3 -7 -7z"/>
<path d="M530 635 c-19 -14 -30 -25 -25 -25 6 0 24 11 40 25 39 31 30 31 -15 0z"/>
<path d="M1503 653 c4 -3 10 -3 14 0 3 4 0 7 -7 7 -7 0 -10 -3 -7 -7z"/>
<path d="M2293 653 c4 -3 10 -3 14 0 3 4 0 7 -7 7 -7 0 -10 -3 -7 -7z"/>
<path d="M3123 653 c9 -2 23 -2 30 0 6 3 -1 5 -18 5 -16 0 -22 -2 -12 -5z"/>
<path d="M1537 639 c7 -7 15 -10 18 -7 3 3 -2 9 -12 12 -14 6 -15 5 -6 -5z"/>
<path d="M474 598 c-4 -7 -3 -8 4 -4 7 4 12 9 12 12 0 8 -9 4 -16 -8z"/>
<path d="M415 560 c-3 -6 1 -7 9 -4 18 7 21 14 7 14 -6 0 -13 -4 -16 -10z"/>
<path d="M1690 560 c0 -7 3 -10 7 -7 3 4 3 10 0 14 -4 3 -7 0 -7 -7z"/>
<path d="M1675 529 c-4 -6 -5 -12 -2 -15 2 -3 7 2 10 11 7 17 1 20 -8 4z"/>
<path d="M7787 519 c7 -7 15 -10 18 -7 3 3 -2 9 -12 12 -14 6 -15 5 -6 -5z"/>
<path d="M7820 515 c0 -10 10 -15 33 -15 22 0 28 3 18 9 -8 5 -21 7 -29 3 -10 -3 -13 -1 -8 6 4 7 2 12 -3 12 -6 0 -11 -7 -11 -15z"/>
<path d="M8453 514 c15 -8 40 -13 55 -11 25 4 25 4 -5 6 -17 0 -35 6 -38 11 -3 6 -14 10 -23 10 -11 -1 -8 -6 11 -16z"/>
<path d="M324 498 c-4 -7 -3 -8 4 -4 7 4 12 9 12 12 0 8 -9 4 -16 -8z"/>
<path d="M7725 452 c3 -43 3 -43 -19 -25 -21 18 -21 18 -4 -2 9 -11 26 -42 38 -69 29 -68 36 -51 12 26 -12 35 -23 74 -25 88 -3 14 -3 6 -2 -18z"/>
<path d="M267 465 c-42 -29 -43 -31 -23 -38 10 -4 13 -1 9 9 -3 7 -1 14 3 14 10 0 62 39 54 40 -3 0 -22 -11 -43 -25z"/>
<path d="M8372 470 c0 -14 2 -19 5 -12 2 6 2 18 0 25 -3 6 -5 1 -5 -13z"/>
<path d="M1565 460 c-3 -6 1 -7 9 -4 18 7 21 14 7 14 -6 0 -13 -4 -16 -10z"/>
<path d="M8183 422 c-12 -28 -19 -52 -15 -52 13 0 44 67 40 86 -2 13 -10 2 -25 -34z"/>
<path d="M7589 451 c11 -7 13 -25 8 -80 -7 -85 9 -96 19 -13 3 31 12 64 18 72 10 13 9 13 -6 1 -16 -12 -18 -11 -18 8 0 13 -6 21 -17 21 -15 0 -15 -2 -4 -9z"/>
<path d="M8239 453 c23 -5 23 -6 17 -81 -4 -53 -3 -72 4 -62 5 8 10 33 10 55 0 43 7 58 30 69 9 3 6 5 -7 2 -12 -2 -24 2 -27 10 -3 8 -16 13 -28 13 -23 -2 -23 -2 1 -6z"/>
<path d="M1533 443 c4 -3 10 -3 14 0 3 4 0 7 -7 7 -7 0 -10 -3 -7 -7z"/>
<path d="M7540 438 c0 -6 -7 -19 -16 -29 -9 -10 -14 -23 -12 -30 2 -6 16 7 31 30 21 31 24 41 12 41 -8 0 -15 -5 -15 -12z"/>
<path d="M8348 433 c7 -3 26 -34 43 -70 17 -36 32 -63 34 -61 8 8 -13 68 -30 84 -9 9 -14 23 -11 31 3 8 2 11 -3 8 -5 -3 -12 -1 -16 5 -3 5 -12 10 -18 9 -8 0 -8 -2 1 -6z"/>
<path d="M1494 418 c-4 -7 -3 -8 4 -4 12 7 16 16 8 16 -3 0 -8 -5 -12 -12z"/>
<path d="M7660 357 c0 -44 5 -79 11 -83 8 -4 9 16 4 72 -4 44 -9 81 -11 83 -2 2 -4 -30 -4 -72z"/>
<path d="M8310 383 c0 -23 5 -45 11 -49 6 -3 9 -19 5 -35 -3 -18 -1 -29 6 -29 7 0 9 20 4 68 -8 77 -26 108 -26 45z"/>
<path d="M293 403 c4 -3 10 -3 14 0 3 4 0 7 -7 7 -7 0 -10 -3 -7 -7z"/>
<path d="M1445 400 c-8 -13 5 -13 25 0 13 8 13 10 -2 10 -9 0 -20 -4 -23 -10z"/>
<path d="M1405 380 c-3 -6 1 -7 9 -4 18 7 21 14 7 14 -6 0 -13 -4 -16 -10z"/>
<path d="M383 363 c4 -3 10 -3 14 0 3 4 0 7 -7 7 -7 0 -10 -3 -7 -7z"/>
<path d="M453 333 c4 -3 10 -3 14 0 3 4 0 7 -7 7 -7 0 -10 -3 -7 -7z"/>
<path d="M480 326 c0 -2 7 -7 16 -10 8 -3 12 -2 9 4 -6 10 -25 14 -25 6z"/>
<path d="M3899 328 c-6 -21 -5 -38 1 -38 5 0 8 9 7 20 -1 17 -5 26 -8 18z"/>
<path d="M1280 310 c-8 -5 -10 -10 -5 -10 6 0 17 5 25 10 8 5 11 10 5 10 -5 0 -17 -5 -25 -10z"/>
<path d="M3695 310 c3 -5 8 -10 11 -10 2 0 4 5 4 10 0 6 -5 10 -11 10 -5 0 -7 -4 -4 -10z"/>
<path d="M545 300 c3 -5 8 -10 11 -10 3 0 2 5 -1 10 -3 6 -8 10 -11 10 -3 0 -2 -4 1 -10z"/>
<path d="M1234 284 c-18 -14 -18 -15 4 -4 12 6 22 13 22 15 0 8 -5 6 -26 -11z"/>
<path d="M3700 280 c-8 -5 -10 -10 -5 -10 6 0 17 5 25 10 8 5 11 10 5 10 -5 0 -17 -5 -25 -10z"/>
<path d="M3740 280 c0 -7 3 -10 7 -7 3 4 3 10 0 14 -4 3 -7 0 -7 -7z"/>
<path d="M3788 283 c7 -3 16 -2 19 1 4 3 -2 6 -13 5 -11 0 -14 -3 -6 -6z"/>
<path d="M3883 273 c4 -3 10 -3 14 0 3 4 0 7 -7 7 -7 0 -10 -3 -7 -7z"/>
<path d="M623 263 c4 -3 10 -3 14 0 3 4 0 7 -7 7 -7 0 -10 -3 -7 -7z"/>
<path d="M655 250 c3 -4 14 -10 25 -13 11 -3 18 -2 15 3 -3 4 -14 10 -25 13 -11 3 -18 2 -15 -3z"/>
<path d="M1059 193 c-12 -16 -12 -17 1 -7 8 6 22 14 30 17 13 5 12 6 -1 6 -9 1 -23 -7 -30 -16z"/>
<path d="M790 190 c8 -5 22 -9 30 -9 10 0 8 3 -5 9 -27 12 -43 12 -25 0z"/>
<path d="M987 162 c-26 -13 -46 -27 -43 -29 5 -6 83 34 91 47 3 5 5 9 3 9 -2 -1 -25 -13 -51 -27z"/>
<path d="M847 169 c7 -7 15 -10 18 -7 3 3 -2 9 -12 12 -14 6 -15 5 -6 -5z"/>
<path d="M897 149 c7 -7 15 -10 18 -7 3 3 -2 9 -12 12 -14 6 -15 5 -6 -5z"/>
</g>
<g id="layer109" fill="#31d16e" stroke="none">
<path d="M6902 1368 l2 -83 3 77 4 78 277 3 277 2 -282 3 -283 2 2 -82z"/>
<path d="M7592 1098 l3 -353 2 347 3 347 23 4 c19 4 18 4 -5 6 l-28 1 2 -352z"/>
<path d="M7688 1443 c17 -2 47 -2 65 0 17 2 3 4 -33 4 -36 0 -50 -2 -32 -4z"/>
<path d="M7808 1443 c7 -3 16 -2 19 1 4 3 -2 6 -13 5 -11 0 -14 -3 -6 -6z"/>
<path d="M8283 1443 c26 -2 68 -2 95 0 26 2 4 3 -48 3 -52 0 -74 -1 -47 -3z"/>
<path d="M8458 1443 c7 -3 16 -2 19 1 4 3 -2 6 -13 5 -11 0 -14 -3 -6 -6z"/>
<path d="M8883 1443 c4 -3 10 -3 14 0 3 4 0 7 -7 7 -7 0 -10 -3 -7 -7z"/>
<path d="M9668 1363 c4 -156 8 -171 10 -40 1 70 -1 127 -5 127 -5 0 -7 -39 -5 -87z"/>
<path d="M10046 1442 c-3 -5 8 -6 25 -4 16 2 29 6 29 8 0 8 -49 4 -54 -4z"/>
<path d="M10123 1443 c4 -3 10 -3 14 0 3 4 0 7 -7 7 -7 0 -10 -3 -7 -7z"/>
<path d="M10170 1446 c0 -2 7 -6 15 -10 8 -3 15 -1 15 4 0 6 -7 10 -15 10 -8 0 -15 -2 -15 -4z"/>
<path d="M4990 1396 c0 -20 2 -36 4 -36 8 0 12 61 4 66 -4 3 -8 -11 -8 -30z"/>
<path d="M5090 1420 c-10 -6 -11 -10 -3 -10 9 0 13 -43 16 -162 l3 -163 2 173 c1 94 1 172 0 172 -2 0 -10 -5 -18 -10z"/>
<path d="M5663 1423 c4 -3 10 -3 14 0 3 4 0 7 -7 7 -7 0 -10 -3 -7 -7z"/>
<path d="M5693 1423 c4 -3 10 -3 14 0 3 4 0 7 -7 7 -7 0 -10 -3 -7 -7z"/>
<path d="M5840 1420 c34 -11 60 -11 35 0 -11 5 -29 8 -40 8 -16 0 -15 -2 5 -8z"/>
<path d="M5053 1413 c4 -3 10 -3 14 0 3 4 0 7 -7 7 -7 0 -10 -3 -7 -7z"/>
<path d="M10024 1408 c-4 -7 -3 -8 4 -4 12 7 16 16 8 16 -3 0 -8 -5 -12 -12z"/>
<path d="M10154 1398 l-19 -23 23 19 c21 18 27 26 19 26 -2 0 -12 -10 -23 -22z"/>
<path d="M5554 1368 c-4 -7 -3 -8 4 -4 12 7 16 16 8 16 -3 0 -8 -5 -12 -12z"/>
<path d="M5960 1376 c0 -2 7 -9 15 -16 9 -7 15 -8 15 -2 0 5 -7 12 -15 16 -8 3 -15 4 -15 2z"/>
<path d="M4994 1140 c0 -102 2 -143 3 -92 2 50 2 134 0 185 -1 50 -3 9 -3 -93z"/>
<path d="M5633 1296 c-15 -13 -26 -26 -23 -28 3 -2 18 9 34 24 35 34 27 37 -11 4z"/>
<path d="M5877 1309 c7 -7 15 -10 18 -7 3 3 -2 9 -12 12 -14 6 -15 5 -6 -5z"/>
<path d="M5934 1308 c-4 -7 -3 -8 4 -4 12 7 16 16 8 16 -3 0 -8 -5 -12 -12z"/>
<path d="M9914 1288 l-29 -33 33 29 c17 17 32 31 32 33 0 8 -8 1 -36 -29z"/>
<path d="M10069 1303 c-13 -16 -12 -17 4 -4 16 13 21 21 13 21 -2 0 -10 -8 -17 -17z"/>
<path d="M5492 1285 c-7 -14 -12 -31 -12 -38 1 -7 7 3 16 22 17 39 13 54 -4 16z"/>
<path d="M7023 1235 c0 -44 2 -61 4 -37 2 23 2 59 0 80 -2 20 -4 1 -4 -43z"/>
<path d="M10006 1233 c-6 -14 -5 -15 5 -6 7 7 10 15 7 18 -3 3 -9 -2 -12 -12z"/>
<path d="M5471 1214 c0 -11 3 -14 6 -6 3 7 2 16 -1 19 -3 4 -6 -2 -5 -13z"/>
<path d="M6904 960 c0 -140 2 -198 3 -128 2 71 2 185 0 255 -1 71 -3 13 -3 -127z"/>
<path d="M9733 1193 c20 -2 54 -2 75 0 20 2 3 4 -38 4 -41 0 -58 -2 -37 -4z"/>
<path d="M5470 1180 c0 -7 3 -10 7 -7 3 4 3 10 0 14 -4 3 -7 0 -7 -7z"/>
<path d="M5805 1183 c152 -3 211 -7 217 -16 5 -8 8 -7 8 6 0 16 -16 17 -217 15 l-218 -3 210 -2z"/>
<path d="M10040 1160 c8 -5 20 -10 25 -10 6 0 3 5 -5 10 -8 5 -19 10 -25 10 -5 0 -3 -5 5 -10z"/>
<path d="M9400 1090 l0 -50 -192 -3 -193 -2 198 -3 197 -2 0 55 c0 30 -2 55 -5 55 -3 0 -5 -22 -5 -50z"/>
<path d="M5471 1095 c-1 -29 32 -115 44 -115 3 0 -2 14 -10 31 -9 17 -20 49 -25 72 -7 35 -8 37 -9 12z"/>
<path d="M5683 1103 c43 -2 110 -2 150 0 40 1 5 3 -78 3 -82 0 -115 -2 -72 -3z"/>
<path d="M6508 1103 c7 -3 16 -2 19 1 4 3 -2 6 -13 5 -11 0 -14 -3 -6 -6z"/>
<path d="M5110 1066 c0 -8 4 -17 9 -20 5 -4 7 3 4 14 -6 23 -13 26 -13 6z"/>
<path d="M5910 1060 c0 -7 3 -10 7 -7 3 4 3 10 0 14 -4 3 -7 0 -7 -7z"/>
<path d="M6010 1050 c0 -7 3 -10 7 -7 3 4 3 10 0 14 -4 3 -7 0 -7 -7z"/>
<path d="M9674 950 c0 -63 1 -89 3 -57 2 31 2 83 0 115 -2 31 -3 5 -3 -58z"/>
<path d="M7138 1023 c56 -2 148 -2 205 0 56 1 10 3 -103 3 -113 0 -159 -2 -102 -3z"/>
<path d="M5620 1016 c0 -2 8 -10 18 -17 15 -13 16 -12 3 4 -13 16 -21 21 -21 13z"/>
<path d="M7023 950 c0 -41 2 -58 4 -37 2 20 2 54 0 75 -2 20 -4 3 -4 -38z"/>
<path d="M10163 960 c0 -36 2 -50 4 -32 2 17 2 47 0 65 -2 17 -4 3 -4 -33z"/>
<path d="M10046 980 c8 -43 14 -51 14 -19 0 13 -5 31 -10 39 -7 11 -8 5 -4 -20z"/>
<path d="M5180 990 c8 -5 22 -9 30 -9 10 0 8 3 -5 9 -27 12 -43 12 -25 0z"/>
<path d="M5854 984 c-18 -14 -18 -15 4 -4 12 6 22 13 22 15 0 8 -5 6 -26 -11z"/>
<path d="M5990 991 c0 -5 -15 -26 -34 -45 -18 -20 -30 -36 -26 -36 11 0 70 68 70 80 0 6 -2 10 -5 10 -3 0 -5 -4 -5 -9z"/>
<path d="M5303 983 c4 -3 10 -3 14 0 3 4 0 7 -7 7 -7 0 -10 -3 -7 -7z"/>
<path d="M5667 979 c7 -7 15 -10 18 -7 3 3 -2 9 -12 12 -14 6 -15 5 -6 -5z"/>
<path d="M5253 973 c9 -2 23 -2 30 0 6 3 -1 5 -18 5 -16 0 -22 -2 -12 -5z"/>
<path d="M5370 975 c0 -5 5 -17 10 -25 5 -8 10 -10 10 -5 0 6 -5 17 -10 25 -5 8 -10 11 -10 5z"/>
<path d="M8364 865 c0 -60 1 -84 3 -52 2 32 2 81 0 110 -2 29 -3 3 -3 -58z"/>
<path d="M5550 935 c13 -14 26 -25 28 -25 3 0 -5 11 -18 25 -13 14 -26 25 -28 25 -3 0 5 -11 18 -25z"/>
<path d="M5140 921 c0 -10 19 -25 25 -20 1 2 -3 10 -11 17 -8 7 -14 8 -14 3z"/>
<path d="M5092 895 c0 -16 2 -22 5 -12 2 9 2 23 0 30 -3 6 -5 -1 -5 -18z"/>
<path d="M10036 905 c-9 -26 -7 -32 5 -12 6 10 9 21 6 23 -2 3 -7 -2 -11 -11z"/>
<path d="M4990 880 c0 -7 3 -10 7 -7 3 4 3 10 0 14 -4 3 -7 0 -7 -7z"/>
<path d="M5188 878 c5 -5 16 -8 23 -6 8 3 3 7 -10 11 -17 4 -21 3 -13 -5z"/>
<path d="M5343 873 c4 -3 10 -3 14 0 3 4 0 7 -7 7 -7 0 -10 -3 -7 -7z"/>
<path d="M5653 873 c4 -3 10 -3 14 0 3 4 0 7 -7 7 -7 0 -10 -3 -7 -7z"/>
<path d="M5838 873 c7 -3 16 -2 19 1 4 3 -2 6 -13 5 -11 0 -14 -3 -6 -6z"/>
<path d="M10150 870 c0 -7 3 -10 7 -7 3 4 3 10 0 14 -4 3 -7 0 -7 -7z"/>
<path d="M5748 863 c12 -2 30 -2 40 0 9 3 -1 5 -23 4 -22 0 -30 -2 -17 -4z"/>
<path d="M7020 860 c0 -7 3 -10 7 -7 3 4 3 10 0 14 -4 3 -7 0 -7 -7z"/>
<path d="M6634 828 c-4 -7 -3 -8 4 -4 12 7 16 16 8 16 -3 0 -8 -5 -12 -12z"/>
<path d="M9043 833 c15 -2 39 -2 55 0 15 2 2 4 -28 4 -30 0 -43 -2 -27 -4z"/>
<path d="M9168 833 c23 -2 59 -2 80 0 20 2 1 4 -43 4 -44 0 -61 -2 -37 -4z"/>
<path d="M9303 833 c9 -2 23 -2 30 0 6 3 -1 5 -18 5 -16 0 -22 -2 -12 -5z"/>
<path d="M9388 833 c6 -2 18 -2 25 0 6 3 1 5 -13 5 -14 0 -19 -2 -12 -5z"/>
<path d="M10084 778 l-19 -23 23 19 c12 11 22 21 22 23 0 8 -8 2 -26 -19z"/>
<path d="M8363 680 c0 -25 2 -35 4 -22 2 12 2 32 0 45 -2 12 -4 2 -4 -23z"/>
<path d="M7730 520 c0 -7 3 -10 7 -7 3 4 3 10 0 14 -4 3 -7 0 -7 -7z"/>
<path d="M7820 509 c0 -5 11 -9 25 -9 14 0 25 2 25 4 0 2 -11 6 -25 8 -14 3 -25 1 -25 -3z"/>
<path d="M8453 513 c4 -3 10 -3 14 0 3 4 0 7 -7 7 -7 0 -10 -3 -7 -7z"/>
<path d="M8498 503 c6 -2 18 -2 25 0 6 3 1 5 -13 5 -14 0 -19 -2 -12 -5z"/>
<path d="M7723 465 c0 -22 2 -30 4 -17 2 12 2 30 0 40 -3 9 -5 -1 -4 -23z"/>
<path d="M7547 443 c-4 -3 -7 -11 -7 -17 0 -6 5 -5 12 2 6 6 9 14 7 17 -3 3 -9 2 -12 -2z"/>
<path d="M7663 375 c0 -33 2 -45 4 -27 2 18 2 45 0 60 -2 15 -4 0 -4 -33z"/>
<path d="M8182 410 c-18 -29 -15 -38 4 -12 9 13 14 25 12 27 -2 2 -9 -5 -16 -15z"/>
<path d="M8260 396 c0 -18 -3 -49 -6 -67 -4 -19 -4 -31 -1 -28 11 9 24 129 15 129 -4 0 -8 -15 -8 -34z"/>
<path d="M7728 415 c-6 -6 22 -88 35 -101 4 -4 1 13 -7 37 -8 24 -16 50 -18 57 -2 7 -6 10 -10 7z"/>
<path d="M8371 415 c0 -5 6 -21 14 -35 8 -14 14 -20 14 -15 0 6 -6 21 -14 35 -8 14 -14 21 -14 15z"/>
<path d="M8320 400 c0 -7 3 -10 7 -7 3 4 3 10 0 14 -4 3 -7 0 -7 -7z"/>
<path d="M7610 380 c0 -7 3 -10 7 -7 3 4 3 10 0 14 -4 3 -7 0 -7 -7z"/>
<path d="M7600 350 c0 -7 3 -10 7 -7 3 4 3 10 0 14 -4 3 -7 0 -7 -7z"/>
<path d="M8410 340 c0 -7 3 -10 7 -7 3 4 3 10 0 14 -4 3 -7 0 -7 -7z"/>
</g>
<g id="layer110" fill="#31d16e" stroke="none">
<path d="M6903 1370 c0 -47 2 -66 4 -42 2 23 2 61 0 85 -2 23 -4 4 -4 -43z"/>
<path d="M8243 1443 c4 -3 10 -3 14 0 3 4 0 7 -7 7 -7 0 -10 -3 -7 -7z"/>
<path d="M9568 1443 c7 -3 16 -2 19 1 4 3 -2 6 -13 5 -11 0 -14 -3 -6 -6z"/>
<path d="M10045 1440 c-3 -6 1 -7 9 -4 18 7 21 14 7 14 -6 0 -13 -4 -16 -10z"/>
<path d="M10190 1440 c0 -7 3 -10 7 -7 3 4 3 10 0 14 -4 3 -7 0 -7 -7z"/>
<path d="M5743 1433 c9 -2 25 -2 35 0 9 3 1 5 -18 5 -19 0 -27 -2 -17 -5z"/>
<path d="M5101 1414 c0 -11 3 -14 6 -6 3 7 2 16 -1 19 -3 4 -6 -2 -5 -13z"/>
<path d="M7450 1340 c0 -7 3 -10 7 -7 3 4 3 10 0 14 -4 3 -7 0 -7 -7z"/>
<path d="M9899 1273 c-13 -16 -12 -17 4 -4 9 7 17 15 17 17 0 8 -8 3 -21 -13z"/>
<path d="M5480 1260 c0 -7 3 -10 7 -7 3 4 3 10 0 14 -4 3 -7 0 -7 -7z"/>
<path d="M7023 1220 c0 -30 2 -43 4 -27 2 15 2 39 0 55 -2 15 -4 2 -4 -28z"/>
<path d="M10004 1228 c-4 -7 -3 -8 4 -4 12 7 16 16 8 16 -3 0 -8 -5 -12 -12z"/>
<path d="M6904 990 c0 -124 2 -174 3 -112 2 61 2 163 0 225 -1 61 -3 11 -3 -113z"/>
<path d="M9727 1193 c18 -2 50 -2 70 0 21 2 7 4 -32 4 -38 0 -55 -2 -38 -4z"/>
<path d="M10003 1173 c4 -3 10 -3 14 0 3 4 0 7 -7 7 -7 0 -10 -3 -7 -7z"/>
<path d="M10047 1159 c7 -7 15 -10 18 -7 3 3 -2 9 -12 12 -14 6 -15 5 -6 -5z"/>
<path d="M5460 1150 c0 -7 3 -10 7 -7 3 4 3 10 0 14 -4 3 -7 0 -7 -7z"/>
<path d="M6423 1093 c4 -3 10 -3 14 0 3 4 0 7 -7 7 -7 0 -10 -3 -7 -7z"/>
<path d="M6373 1083 c4 -3 10 -3 14 0 3 4 0 7 -7 7 -7 0 -10 -3 -7 -7z"/>
<path d="M5110 1070 c0 -7 3 -10 7 -7 3 4 3 10 0 14 -4 3 -7 0 -7 -7z"/>
<path d="M9023 1033 c4 -3 10 -3 14 0 3 4 0 7 -7 7 -7 0 -10 -3 -7 -7z"/>
<path d="M9133 1033 c37 -2 96 -2 130 0 34 2 4 3 -68 3 -71 0 -99 -1 -62 -3z"/>
<path d="M9373 1033 c9 -2 23 -2 30 0 6 3 -1 5 -18 5 -16 0 -22 -2 -12 -5z"/>
<path d="M7118 1023 c45 -2 119 -2 165 0 45 1 8 3 -83 3 -91 0 -128 -2 -82 -3z"/>
<path d="M7408 1023 c6 -2 18 -2 25 0 6 3 1 5 -13 5 -14 0 -19 -2 -12 -5z"/>
<path d="M10160 1010 c0 -7 3 -10 7 -7 3 4 3 10 0 14 -4 3 -7 0 -7 -7z"/>
<path d="M5355 1000 c3 -5 8 -10 11 -10 3 0 2 5 -1 10 -3 6 -8 10 -11 10 -3 0 -2 -4 1 -10z"/>
<path d="M5635 1000 c3 -5 8 -10 11 -10 3 0 2 5 -1 10 -3 6 -8 10 -11 10 -3 0 -2 -4 1 -10z"/>
<path d="M10040 1000 c0 -7 3 -10 7 -7 3 4 3 10 0 14 -4 3 -7 0 -7 -7z"/>
<path d="M7023 930 c0 -30 2 -43 4 -27 2 15 2 39 0 55 -2 15 -4 2 -4 -28z"/>
<path d="M5964 948 c-4 -7 -3 -8 4 -4 7 4 12 9 12 12 0 8 -9 4 -16 -8z"/>
<path d="M5145 910 c3 -5 8 -10 11 -10 3 0 2 5 -1 10 -3 6 -8 10 -11 10 -3 0 -2 -4 1 -10z"/>
<path d="M10160 910 c0 -7 3 -10 7 -7 3 4 3 10 0 14 -4 3 -7 0 -7 -7z"/>
<path d="M6191 884 c0 -11 3 -14 6 -6 3 7 2 16 -1 19 -3 4 -6 -2 -5 -13z"/>
<path d="M5090 880 c0 -7 3 -10 7 -7 3 4 3 10 0 14 -4 3 -7 0 -7 -7z"/>
<path d="M5253 863 c4 -3 10 -3 14 0 3 4 0 7 -7 7 -7 0 -10 -3 -7 -7z"/>
<path d="M5283 863 c4 -3 10 -3 14 0 3 4 0 7 -7 7 -7 0 -10 -3 -7 -7z"/>
<path d="M5783 863 c4 -3 10 -3 14 0 3 4 0 7 -7 7 -7 0 -10 -3 -7 -7z"/>
<path d="M7353 823 c9 -2 25 -2 35 0 9 3 1 5 -18 5 -19 0 -27 -2 -17 -5z"/>
<path d="M7430 823 c8 -3 18 -11 22 -17 5 -7 8 -4 8 7 0 11 -7 17 -22 16 -16 0 -18 -2 -8 -6z"/>
<path d="M9753 823 c31 -2 83 -2 115 0 31 2 5 3 -58 3 -63 0 -89 -1 -57 -3z"/>
<path d="M6902 730 c0 -14 2 -19 5 -12 2 6 2 18 0 25 -3 6 -5 1 -5 -13z"/>
<path d="M7451 724 c0 -11 3 -14 6 -6 3 7 2 16 -1 19 -3 4 -6 -2 -5 -13z"/>
<path d="M6573 683 c4 -3 10 -3 14 0 3 4 0 7 -7 7 -7 0 -10 -3 -7 -7z"/>
<path d="M6463 673 c9 -2 25 -2 35 0 9 3 1 5 -18 5 -19 0 -27 -2 -17 -5z"/>
<path d="M7711 654 c0 -11 3 -14 6 -6 3 7 2 16 -1 19 -3 4 -6 -2 -5 -13z"/>
<path d="M7823 503 c4 -3 10 -3 14 0 3 4 0 7 -7 7 -7 0 -10 -3 -7 -7z"/>
<path d="M7853 503 c4 -3 10 -3 14 0 3 4 0 7 -7 7 -7 0 -10 -3 -7 -7z"/>
<path d="M8513 503 c4 -3 10 -3 14 0 3 4 0 7 -7 7 -7 0 -10 -3 -7 -7z"/>
<path d="M7720 470 c0 -7 3 -10 7 -7 3 4 3 10 0 14 -4 3 -7 0 -7 -7z"/>
<path d="M7544 428 c-4 -7 -3 -8 4 -4 12 7 16 16 8 16 -3 0 -8 -5 -12 -12z"/>
<path d="M8263 380 c0 -25 2 -35 4 -22 2 12 2 32 0 45 -2 12 -4 2 -4 -23z"/>
<path d="M8175 399 c-4 -6 -5 -12 -2 -15 2 -3 7 2 10 11 7 17 1 20 -8 4z"/>
<path d="M7660 390 c0 -7 3 -10 7 -7 3 4 3 10 0 14 -4 3 -7 0 -7 -7z"/>
<path d="M7662 345 c0 -16 2 -22 5 -12 2 9 2 23 0 30 -3 6 -5 -1 -5 -18z"/>
<path d="M7750 331 c0 -6 4 -13 10 -16 6 -3 7 1 4 9 -7 18 -14 21 -14 7z"/>
<path d="M8332 300 c0 -19 2 -27 5 -17 2 9 2 25 0 35 -3 9 -5 1 -5 -18z"/>
<path d="M8250 310 c0 -7 3 -10 7 -7 3 4 3 10 0 14 -4 3 -7 0 -7 -7z"/>
<path d="M8413 313 c4 -3 10 -3 14 0 3 4 0 7 -7 7 -7 0 -10 -3 -7 -7z"/>
<path d="M7671 284 c0 -11 3 -14 6 -6 3 7 2 16 -1 19 -3 4 -6 -2 -5 -13z"/>
</g>


</svg>